MetropolisNew-Black.ufo
<glyph name="exclam" format="2">
  <advance width="342"/>
  <unicode hex="0021"/>
  <outline>
    <contour>
      <point x="236" y="274" type="line"/>
      <point x="278" y="687" type="line"/>
      <point x="63" y="687" type="line"/>
      <point x="106" y="274" type="line"/>
    </contour>
    <contour>
      <point x="171" y="-12" type="curve" smooth="yes"/>
      <point x="233" y="-12"/>
      <point x="284" y="41"/>
      <point x="284" y="106" type="curve" smooth="yes"/>
      <point x="284" y="166"/>
      <point x="233" y="219"/>
      <point x="171" y="219" type="curve" smooth="yes"/>
      <point x="104" y="219"/>
      <point x="53" y="166"/>
      <point x="53" y="106" type="curve" smooth="yes"/>
      <point x="53" y="41"/>
      <point x="104" y="-12"/>
    </contour>
  </outline>
</glyph>
<glyph name="nine" format="2">
  <advance width="676"/>
  <unicode hex="0039"/>
  <outline>
    <contour>
      <point x="317" y="699" type="curve" smooth="yes"/>
      <point x="162" y="699"/>
      <point x="40" y="604"/>
      <point x="40" y="454" type="curve" smooth="yes"/>
      <point x="40" y="317"/>
      <point x="145" y="233"/>
      <point x="273" y="233" type="curve" smooth="yes"/>
      <point x="350" y="233"/>
      <point x="429" y="267"/>
      <point x="465" y="316" type="curve"/>
      <point x="444" y="506" type="line"/>
      <point x="441" y="437"/>
      <point x="396" y="388"/>
      <point x="335" y="388" type="curve" smooth="yes"/>
      <point x="285" y="388"/>
      <point x="240" y="415"/>
      <point x="240" y="462" type="curve" smooth="yes"/>
      <point x="240" y="504"/>
      <point x="276" y="535"/>
      <point x="330" y="535" type="curve" smooth="yes"/>
      <point x="414" y="535"/>
      <point x="430" y="485"/>
      <point x="430" y="356" type="curve" smooth="yes"/>
      <point x="430" y="229"/>
      <point x="382" y="157"/>
      <point x="287" y="157" type="curve" smooth="yes"/>
      <point x="235" y="157"/>
      <point x="197" y="173"/>
      <point x="156" y="203" type="curve"/>
      <point x="68" y="57" type="line"/>
      <point x="128" y="14"/>
      <point x="202" y="-12"/>
      <point x="289" y="-12" type="curve" smooth="yes"/>
      <point x="502" y="-12"/>
      <point x="630" y="135"/>
      <point x="630" y="356" type="curve" smooth="yes"/>
      <point x="630" y="560"/>
      <point x="527" y="699"/>
    </contour>
  </outline>
</glyph>
<glyph name="A" format="2">
  <advance width="767"/>
  <unicode hex="0041"/>
  <anchor x="757" y="0" name="bottom"/>
  <anchor x="384" y="687" name="top"/>
  <outline>
    <contour>
      <point x="274" y="687" type="line"/>
      <point x="538" y="0" type="line"/>
      <point x="757" y="0" type="line"/>
      <point x="493" y="687" type="line"/>
    </contour>
    <contour>
      <point x="175" y="87" type="line"/>
      <point x="594" y="87" type="line"/>
      <point x="594" y="250" type="line"/>
      <point x="175" y="250" type="line"/>
    </contour>
    <contour>
      <point x="10" y="0" type="line"/>
      <point x="229" y="0" type="line"/>
      <point x="493" y="687" type="line"/>
      <point x="274" y="687" type="line"/>
    </contour>
  </outline>
  <guideline angle="90" x="384" y="0"/>
</glyph>
<glyph name="B" format="2">
  <advance width="715"/>
  <unicode hex="0042"/>
  <outline>
    <contour>
      <point x="450" y="0" type="line" smooth="yes"/>
      <point x="590" y="0"/>
      <point x="690" y="75"/>
      <point x="690" y="185" type="curve" smooth="yes"/>
      <point x="690" y="261"/>
      <point x="643" y="326"/>
      <point x="563" y="360" type="curve"/>
      <point x="623" y="389"/>
      <point x="658" y="447"/>
      <point x="658" y="514" type="curve" smooth="yes"/>
      <point x="658" y="614"/>
      <point x="567" y="687"/>
      <point x="436" y="687" type="curve" smooth="yes"/>
      <point x="66" y="687" type="line"/>
      <point x="66" y="0" type="line"/>
    </contour>
    <contour>
      <point x="259" y="273" type="line"/>
      <point x="418" y="273" type="line" smooth="yes"/>
      <point x="460" y="273"/>
      <point x="490" y="250"/>
      <point x="490" y="218" type="curve" smooth="yes"/>
      <point x="490" y="186"/>
      <point x="460" y="163"/>
      <point x="418" y="163" type="curve" smooth="yes"/>
      <point x="259" y="163" type="line"/>
    </contour>
    <contour>
      <point x="259" y="524" type="line"/>
      <point x="389" y="524" type="line" smooth="yes"/>
      <point x="429" y="524"/>
      <point x="458" y="502"/>
      <point x="458" y="472" type="curve" smooth="yes"/>
      <point x="458" y="442"/>
      <point x="429" y="420"/>
      <point x="389" y="420" type="curve" smooth="yes"/>
      <point x="259" y="420" type="line"/>
    </contour>
  </outline>
</glyph>
<glyph name="I" format="2">
  <advance width="326"/>
  <unicode hex="0049"/>
  <anchor x="260" y="0" name="bottom"/>
  <anchor x="163" y="687" name="top"/>
  <outline>
    <contour>
      <point x="260" y="0" type="line"/>
      <point x="260" y="687" type="line"/>
      <point x="66" y="687" type="line"/>
      <point x="66" y="0" type="line"/>
    </contour>
  </outline>
</glyph>
<glyph name="J" format="2">
  <advance width="549"/>
  <unicode hex="004A"/>
  <outline>
    <contour>
      <point x="247" y="-12" type="curve" smooth="yes"/>
      <point x="393" y="-12"/>
      <point x="496" y="86"/>
      <point x="496" y="224" type="curve" smooth="yes"/>
      <point x="496" y="687" type="line"/>
      <point x="302" y="687" type="line"/>
      <point x="302" y="244" type="line" smooth="yes"/>
      <point x="302" y="197"/>
      <point x="268" y="164"/>
      <point x="221" y="164" type="curve" smooth="yes"/>
      <point x="186" y="164"/>
      <point x="148" y="189"/>
      <point x="129" y="224" type="curve"/>
      <point x="4" y="102" type="line"/>
      <point x="53" y="35"/>
      <point x="154" y="-12"/>
    </contour>
  </outline>
</glyph>
<glyph name="N" format="2">
  <advance width="788"/>
  <unicode hex="004E"/>
  <anchor x="394" y="0" name="bottom"/>
  <anchor x="394" y="687" name="top"/>
  <outline>
    <contour>
      <point x="260" y="0" type="line"/>
      <point x="260" y="368" type="line"/>
      <point x="528" y="0" type="line"/>
      <point x="722" y="0" type="line"/>
      <point x="722" y="687" type="line"/>
      <point x="528" y="687" type="line"/>
      <point x="528" y="319" type="line"/>
      <point x="260" y="687" type="line"/>
      <point x="66" y="687" type="line"/>
      <point x="66" y="0" type="line"/>
    </contour>
  </outline>
</glyph>
<glyph name="O" format="2">
  <advance width="796"/>
  <unicode hex="004F"/>
  <anchor x="398" y="687" name="top"/>
  <outline>
    <contour>
      <point x="398" y="-12" type="curve" smooth="yes"/>
      <point x="601" y="-12"/>
      <point x="772" y="151"/>
      <point x="772" y="344" type="curve" smooth="yes"/>
      <point x="772" y="537"/>
      <point x="601" y="699"/>
      <point x="398" y="699" type="curve" smooth="yes"/>
      <point x="195" y="699"/>
      <point x="24" y="537"/>
      <point x="24" y="344" type="curve" smooth="yes"/>
      <point x="24" y="151"/>
      <point x="195" y="-12"/>
    </contour>
    <contour>
      <point x="398" y="164" type="curve" smooth="yes"/>
      <point x="304" y="164"/>
      <point x="224" y="246"/>
      <point x="224" y="344" type="curve" smooth="yes"/>
      <point x="224" y="441"/>
      <point x="304" y="523"/>
      <point x="398" y="523" type="curve" smooth="yes"/>
      <point x="492" y="523"/>
      <point x="572" y="441"/>
      <point x="572" y="344" type="curve" smooth="yes"/>
      <point x="572" y="246"/>
      <point x="492" y="164"/>
    </contour>
  </outline>
</glyph>
<glyph name="P" format="2">
  <advance width="678"/>
  <unicode hex="0050"/>
  <outline>
    <contour>
      <point x="260" y="0" type="line"/>
      <point x="260" y="207" type="line"/>
      <point x="395" y="207" type="line" smooth="yes"/>
      <point x="549" y="207"/>
      <point x="658" y="306"/>
      <point x="658" y="447" type="curve" smooth="yes"/>
      <point x="658" y="588"/>
      <point x="549" y="687"/>
      <point x="395" y="687" type="curve" smooth="yes"/>
      <point x="66" y="687" type="line"/>
      <point x="66" y="0" type="line"/>
    </contour>
    <contour>
      <point x="260" y="511" type="line"/>
      <point x="379" y="511" type="line" smooth="yes"/>
      <point x="425" y="511"/>
      <point x="458" y="484"/>
      <point x="458" y="447" type="curve" smooth="yes"/>
      <point x="458" y="410"/>
      <point x="425" y="383"/>
      <point x="379" y="383" type="curve" smooth="yes"/>
      <point x="260" y="383" type="line"/>
    </contour>
  </outline>
</glyph>
<glyph name="R" format="2">
  <advance width="697"/>
  <unicode hex="0052"/>
  <outline>
    <contour>
      <point x="60" y="0" type="line"/>
      <point x="254" y="0" type="line"/>
      <point x="254" y="207" type="line"/>
      <point x="314" y="207" type="line"/>
      <point x="459" y="0" type="line"/>
      <point x="680" y="0" type="line"/>
      <point x="516" y="233" type="line"/>
      <point x="602" y="274"/>
      <point x="652" y="351"/>
      <point x="652" y="447" type="curve" smooth="yes"/>
      <point x="652" y="599"/>
      <point x="533" y="687"/>
      <point x="389" y="687" type="curve" smooth="yes"/>
      <point x="60" y="687" type="line"/>
    </contour>
    <contour>
      <point x="254" y="383" type="line"/>
      <point x="254" y="511" type="line"/>
      <point x="373" y="511" type="line" smooth="yes"/>
      <point x="411" y="511"/>
      <point x="452" y="490"/>
      <point x="452" y="447" type="curve" smooth="yes"/>
      <point x="452" y="404"/>
      <point x="411" y="383"/>
      <point x="373" y="383" type="curve" smooth="yes"/>
    </contour>
  </outline>
</glyph>
<glyph name="T" format="2">
  <advance width="640"/>
  <unicode hex="0054"/>
  <anchor x="320" y="0" name="bottom"/>
  <anchor x="320" y="687" name="top"/>
  <outline>
    <contour>
      <point x="417" y="0" type="line"/>
      <point x="417" y="514" type="line"/>
      <point x="620" y="514" type="line"/>
      <point x="620" y="687" type="line"/>
      <point x="20" y="687" type="line"/>
      <point x="20" y="514" type="line"/>
      <point x="223" y="514" type="line"/>
      <point x="223" y="0" type="line"/>
    </contour>
  </outline>
</glyph>
<glyph name="U" format="2">
  <advance width="750"/>
  <unicode hex="0055"/>
  <anchor x="375" y="-12" name="bottom"/>
  <anchor x="375" y="687" name="top"/>
  <outline>
    <contour>
      <point x="375" y="-12" type="curve" smooth="yes"/>
      <point x="567" y="-12"/>
      <point x="702" y="119"/>
      <point x="702" y="305" type="curve" smooth="yes"/>
      <point x="702" y="687" type="line"/>
      <point x="508" y="687" type="line"/>
      <point x="508" y="315" type="line" smooth="yes"/>
      <point x="508" y="227"/>
      <point x="453" y="164"/>
      <point x="375" y="164" type="curve" smooth="yes"/>
      <point x="297" y="164"/>
      <point x="242" y="227"/>
      <point x="242" y="315" type="curve" smooth="yes"/>
      <point x="242" y="687" type="line"/>
      <point x="48" y="687" type="line"/>
      <point x="48" y="305" type="line" smooth="yes"/>
      <point x="48" y="119"/>
      <point x="183" y="-12"/>
    </contour>
  </outline>
</glyph>
<glyph name="X" format="2">
  <advance width="741"/>
  <unicode hex="0058"/>
  <outline>
    <contour>
      <point x="727" y="0" type="line"/>
      <point x="241" y="687" type="line"/>
      <point x="14" y="687" type="line"/>
      <point x="500" y="0" type="line"/>
    </contour>
    <contour>
      <point x="237" y="0" type="line"/>
      <point x="727" y="687" type="line"/>
      <point x="504" y="687" type="line"/>
      <point x="14" y="0" type="line"/>
    </contour>
  </outline>
</glyph>
<glyph name="backslash" format="2">
  <advance width="542"/>
  <unicode hex="005C"/>
  <outline>
    <contour>
      <point x="541" y="-74" type="line"/>
      <point x="201" y="743" type="line"/>
      <point x="1" y="743" type="line"/>
      <point x="341" y="-74" type="line"/>
    </contour>
  </outline>
</glyph>
<glyph name="e" format="2">
  <advance width="581"/>
  <unicode hex="0065"/>
  <anchor x="306" y="-12" name="bottom"/>
  <anchor x="298" y="517" name="top"/>
  <outline>
    <contour>
      <point x="306" y="-12" type="curve" smooth="yes"/>
      <point x="385" y="-12"/>
      <point x="473" y="21"/>
      <point x="519" y="68" type="curve"/>
      <point x="413" y="175" type="line"/>
      <point x="379" y="148"/>
      <point x="337" y="132"/>
      <point x="298" y="132" type="curve" smooth="yes"/>
      <point x="235" y="132"/>
      <point x="195" y="185"/>
      <point x="195" y="259" type="curve" smooth="yes"/>
      <point x="195" y="333"/>
      <point x="235" y="385"/>
      <point x="298" y="385" type="curve" smooth="yes"/>
      <point x="354" y="385"/>
      <point x="389" y="335"/>
      <point x="389" y="265" type="curve"/>
      <point x="436" y="314" type="line"/>
      <point x="79" y="314" type="line"/>
      <point x="79" y="213" type="line"/>
      <point x="567" y="213" type="line"/>
      <point x="567" y="412"/>
      <point x="464" y="529"/>
      <point x="298" y="529" type="curve" smooth="yes"/>
      <point x="138" y="529"/>
      <point x="20" y="418"/>
      <point x="20" y="260" type="curve" smooth="yes"/>
      <point x="20" y="101"/>
      <point x="141" y="-12"/>
    </contour>
  </outline>
</glyph>
<glyph name="l" format="2">
  <advance width="321"/>
  <unicode hex="006C"/>
  <anchor x="160" y="0" name="bottom"/>
  <anchor x="160" y="699" name="top"/>
  <outline>
    <contour>
      <point x="257" y="0" type="line"/>
      <point x="257" y="699" type="line"/>
      <point x="64" y="699" type="line"/>
      <point x="64" y="0" type="line"/>
    </contour>
  </outline>
</glyph>
<glyph name="o" format="2">
  <advance width="621"/>
  <unicode hex="006F"/>
  <anchor x="311" y="517" name="top"/>
  <outline>
    <contour>
      <point x="311" y="-12" type="curve" smooth="yes"/>
      <point x="472" y="-12"/>
      <point x="603" y="110"/>
      <point x="603" y="259" type="curve" smooth="yes"/>
      <point x="603" y="408"/>
      <point x="472" y="529"/>
      <point x="311" y="529" type="curve" smooth="yes"/>
      <point x="150" y="529"/>
      <point x="18" y="408"/>
      <point x="18" y="259" type="curve" smooth="yes"/>
      <point x="18" y="110"/>
      <point x="150" y="-12"/>
    </contour>
    <contour>
      <point x="311" y="148" type="curve" smooth="yes"/>
      <point x="250" y="148"/>
      <point x="200" y="198"/>
      <point x="200" y="259" type="curve" smooth="yes"/>
      <point x="200" y="320"/>
      <point x="250" y="369"/>
      <point x="311" y="369" type="curve" smooth="yes"/>
      <point x="372" y="369"/>
      <point x="421" y="320"/>
      <point x="421" y="259" type="curve" smooth="yes"/>
      <point x="421" y="198"/>
      <point x="372" y="148"/>
    </contour>
  </outline>
</glyph>
<glyph name="p" format="2">
  <advance width="682"/>
  <unicode hex="0070"/>
  <outline>
    <contour>
      <point x="422" y="-12" type="curve" smooth="yes"/>
      <point x="561" y="-12"/>
      <point x="659" y="100"/>
      <point x="659" y="259" type="curve" smooth="yes"/>
      <point x="659" y="417"/>
      <point x="561" y="529"/>
      <point x="422" y="529" type="curve" smooth="yes"/>
      <point x="286" y="529"/>
      <point x="189" y="417"/>
      <point x="189" y="259" type="curve" smooth="yes"/>
      <point x="189" y="100"/>
      <point x="286" y="-12"/>
    </contour>
    <contour>
      <point x="361" y="148" type="curve" smooth="yes"/>
      <point x="300" y="148"/>
      <point x="257" y="194"/>
      <point x="257" y="259" type="curve" smooth="yes"/>
      <point x="257" y="323"/>
      <point x="300" y="369"/>
      <point x="361" y="369" type="curve" smooth="yes"/>
      <point x="428" y="369"/>
      <point x="475" y="323"/>
      <point x="475" y="259" type="curve" smooth="yes"/>
      <point x="475" y="194"/>
      <point x="428" y="148"/>
    </contour>
    <contour>
      <point x="257" y="-172" type="line"/>
      <point x="257" y="517" type="line"/>
      <point x="64" y="517" type="line"/>
      <point x="64" y="-172" type="line"/>
    </contour>
  </outline>
</glyph>
<glyph name="r" format="2">
  <advance width="427"/>
  <unicode hex="0072"/>
  <anchor x="235" y="0" name="bottom"/>
  <anchor x="235" y="517" name="top"/>
  <outline>
    <contour>
      <point x="249" y="219" type="line"/>
      <point x="249" y="313"/>
      <point x="309" y="369"/>
      <point x="411" y="369" type="curve"/>
      <point x="411" y="529" type="line"/>
      <point x="297" y="529"/>
      <point x="216" y="425"/>
      <point x="216" y="279" type="curve"/>
    </contour>
    <contour>
      <point x="249" y="0" type="line"/>
      <point x="249" y="517" type="line"/>
      <point x="56" y="517" type="line"/>
      <point x="56" y="0" type="line"/>
    </contour>
  </outline>
</glyph>
<glyph name="cent" format="2">
  <advance width="624"/>
  <unicode hex="00A2"/>
  <anchor x="342" y="0" name="bottom"/>
  <anchor x="332" y="517" name="top"/>
  <outline>
    <contour>
      <point x="406" y="-74" type="line"/>
      <point x="406" y="589" type="line"/>
      <point x="296" y="589" type="line"/>
      <point x="296" y="-74" type="line"/>
    </contour>
    <contour>
      <point x="351" y="-12" type="curve" smooth="yes"/>
      <point x="447" y="-12"/>
      <point x="520" y="27"/>
      <point x="572" y="87" type="curve"/>
      <point x="445" y="189" type="line"/>
      <point x="424" y="165"/>
      <point x="386" y="148"/>
      <point x="353" y="148" type="curve" smooth="yes"/>
      <point x="294" y="148"/>
      <point x="245" y="199"/>
      <point x="245" y="260" type="curve" smooth="yes"/>
      <point x="245" y="319"/>
      <point x="294" y="369"/>
      <point x="352" y="369" type="curve" smooth="yes"/>
      <point x="385" y="369"/>
      <point x="422" y="352"/>
      <point x="442" y="329" type="curve"/>
      <point x="569" y="433" type="line"/>
      <point x="519" y="491"/>
      <point x="446" y="529"/>
      <point x="354" y="529" type="curve" smooth="yes"/>
      <point x="195" y="529"/>
      <point x="61" y="406"/>
      <point x="61" y="259" type="curve" smooth="yes"/>
      <point x="61" y="112"/>
      <point x="194" y="-12"/>
    </contour>
  </outline>
</glyph>
<glyph name="currency" format="2">
  <advance width="700"/>
  <unicode hex="00A4"/>
  <outline>
    <contour>
      <point x="237" y="537" type="line"/>
      <point x="128" y="646" type="line"/>
      <point x="22" y="538" type="line"/>
      <point x="131" y="429" type="line"/>
    </contour>
    <contour>
      <point x="237" y="98" type="line"/>
      <point x="131" y="206" type="line"/>
      <point x="22" y="97" type="line"/>
      <point x="128" y="-11" type="line"/>
    </contour>
    <contour>
      <point x="678" y="97" type="line"/>
      <point x="568" y="206" type="line"/>
      <point x="462" y="98" type="line"/>
      <point x="571" y="-11" type="line"/>
    </contour>
    <contour>
      <point x="678" y="538" type="line"/>
      <point x="571" y="646" type="line"/>
      <point x="462" y="537" type="line"/>
      <point x="568" y="429" type="line"/>
    </contour>
    <contour>
      <point x="349" y="65" type="curve" smooth="yes"/>
      <point x="492" y="65"/>
      <point x="608" y="181"/>
      <point x="608" y="322" type="curve" smooth="yes"/>
      <point x="608" y="464"/>
      <point x="493" y="579"/>
      <point x="349" y="579" type="curve" smooth="yes"/>
      <point x="207" y="579"/>
      <point x="91" y="464"/>
      <point x="91" y="322" type="curve" smooth="yes"/>
      <point x="91" y="181"/>
      <point x="207" y="65"/>
    </contour>
    <contour>
      <point x="349" y="216" type="curve" smooth="yes"/>
      <point x="289" y="216"/>
      <point x="241" y="263"/>
      <point x="241" y="322" type="curve" smooth="yes"/>
      <point x="241" y="381"/>
      <point x="289" y="429"/>
      <point x="349" y="429" type="curve" smooth="yes"/>
      <point x="409" y="429"/>
      <point x="459" y="381"/>
      <point x="459" y="322" type="curve" smooth="yes"/>
      <point x="459" y="263"/>
      <point x="409" y="216"/>
    </contour>
  </outline>
</glyph>
<glyph name="brokenbar" format="2">
  <advance width="307"/>
  <unicode hex="00A6"/>
  <outline>
    <contour>
      <point x="241" y="392" type="line"/>
      <point x="241" y="742" type="line"/>
      <point x="66" y="742" type="line"/>
      <point x="66" y="392" type="line"/>
    </contour>
    <contour>
      <point x="241" y="-194" type="line"/>
      <point x="241" y="156" type="line"/>
      <point x="66" y="156" type="line"/>
      <point x="66" y="-194" type="line"/>
    </contour>
  </outline>
</glyph>
<glyph name="section" format="2">
  <advance width="536"/>
  <unicode hex="00A7"/>
  <anchor x="256" y="175" name="bottom"/>
  <anchor x="255" y="692" name="top"/>
  <outline>
    <contour>
      <point x="388" y="183" type="line"/>
      <point x="451" y="212"/>
      <point x="487" y="265"/>
      <point x="487" y="334" type="curve" smooth="yes"/>
      <point x="487" y="456"/>
      <point x="379" y="487"/>
      <point x="285" y="508" type="curve" smooth="yes"/>
      <point x="233" y="520"/>
      <point x="210" y="523"/>
      <point x="210" y="540" type="curve" smooth="yes"/>
      <point x="210" y="555"/>
      <point x="228" y="569"/>
      <point x="255" y="569" type="curve" smooth="yes"/>
      <point x="304" y="569"/>
      <point x="363" y="542"/>
      <point x="406" y="514" type="curve"/>
      <point x="471" y="632" type="line"/>
      <point x="412" y="671"/>
      <point x="335" y="700"/>
      <point x="255" y="700" type="curve" smooth="yes"/>
      <point x="120" y="700"/>
      <point x="39" y="622"/>
      <point x="39" y="522" type="curve" smooth="yes"/>
      <point x="39" y="400"/>
      <point x="144" y="397"/>
      <point x="238" y="377" type="curve" smooth="yes"/>
      <point x="286" y="367"/>
      <point x="316" y="357"/>
      <point x="316" y="339" type="curve" smooth="yes"/>
      <point x="316" y="315"/>
      <point x="285" y="313"/>
      <point x="267" y="313" type="curve"/>
    </contour>
    <contour>
      <point x="262" y="-12" type="curve" smooth="yes"/>
      <point x="402" y="-12"/>
      <point x="487" y="56"/>
      <point x="487" y="163" type="curve" smooth="yes"/>
      <point x="487" y="285"/>
      <point x="379" y="296"/>
      <point x="285" y="317" type="curve" smooth="yes"/>
      <point x="233" y="329"/>
      <point x="210" y="332"/>
      <point x="210" y="349" type="curve" smooth="yes"/>
      <point x="210" y="370"/>
      <point x="223" y="391"/>
      <point x="247" y="411" type="curve"/>
      <point x="108" y="487" type="line"/>
      <point x="63" y="455"/>
      <point x="39" y="406"/>
      <point x="39" y="351" type="curve" smooth="yes"/>
      <point x="39" y="229"/>
      <point x="144" y="206"/>
      <point x="238" y="186" type="curve" smooth="yes"/>
      <point x="286" y="176"/>
      <point x="316" y="166"/>
      <point x="316" y="148" type="curve" smooth="yes"/>
      <point x="316" y="131"/>
      <point x="303" y="122"/>
      <point x="267" y="122" type="curve" smooth="yes"/>
      <point x="212" y="122"/>
      <point x="138" y="148"/>
      <point x="88" y="183" type="curve"/>
      <point x="16" y="66" type="line"/>
      <point x="79" y="17"/>
      <point x="172" y="-12"/>
    </contour>
  </outline>
</glyph>
<glyph name="dieresis" format="2">
  <advance width="440"/>
  <unicode hex="00A8"/>
  <anchor x="220" y="517" name="_top"/>
  <anchor x="220" y="704" name="top"/>
  <outline>
    <contour>
      <point x="108" y="575" type="curve" smooth="yes"/>
      <point x="155" y="575"/>
      <point x="194" y="614"/>
      <point x="194" y="662" type="curve" smooth="yes"/>
      <point x="194" y="708"/>
      <point x="155" y="748"/>
      <point x="108" y="748" type="curve" smooth="yes"/>
      <point x="58" y="748"/>
      <point x="21" y="708"/>
      <point x="21" y="662" type="curve" smooth="yes"/>
      <point x="21" y="614"/>
      <point x="58" y="575"/>
    </contour>
    <contour>
      <point x="333" y="575" type="curve" smooth="yes"/>
      <point x="381" y="575"/>
      <point x="419" y="614"/>
      <point x="419" y="662" type="curve" smooth="yes"/>
      <point x="419" y="708"/>
      <point x="381" y="748"/>
      <point x="333" y="748" type="curve" smooth="yes"/>
      <point x="284" y="748"/>
      <point x="246" y="708"/>
      <point x="246" y="662" type="curve" smooth="yes"/>
      <point x="246" y="614"/>
      <point x="284" y="575"/>
    </contour>
  </outline>
</glyph>
<glyph name="ordfeminine" format="2">
  <advance width="343"/>
  <unicode hex="00AA"/>
  <anchor x="318" y="377" name="bottom"/>
  <anchor x="181" y="687" name="top"/>
  <outline>
    <contour>
      <point x="318" y="377" type="line"/>
      <point x="318" y="560" type="line" smooth="yes"/>
      <point x="318" y="645"/>
      <point x="253" y="694"/>
      <point x="175" y="694" type="curve" smooth="yes"/>
      <point x="122" y="694"/>
      <point x="76" y="679"/>
      <point x="33" y="658" type="curve"/>
      <point x="70" y="585" type="line"/>
      <point x="92" y="597"/>
      <point x="116" y="603"/>
      <point x="143" y="603" type="curve" smooth="yes"/>
      <point x="184" y="603"/>
      <point x="207" y="587"/>
      <point x="207" y="560" type="curve" smooth="yes"/>
      <point x="207" y="377" type="line"/>
    </contour>
    <contour>
      <point x="127" y="370" type="curve" smooth="yes"/>
      <point x="175" y="370"/>
      <point x="223" y="397"/>
      <point x="235" y="445" type="curve"/>
      <point x="207" y="475" type="line"/>
      <point x="205" y="457"/>
      <point x="184" y="444"/>
      <point x="155" y="444" type="curve" smooth="yes"/>
      <point x="134" y="444"/>
      <point x="119" y="456"/>
      <point x="119" y="472" type="curve" smooth="yes"/>
      <point x="119" y="489"/>
      <point x="136" y="502"/>
      <point x="158" y="502" type="curve" smooth="yes"/>
      <point x="176" y="502"/>
      <point x="194" y="498"/>
      <point x="208" y="490" type="curve"/>
      <point x="238" y="541" type="line"/>
      <point x="208" y="562"/>
      <point x="172" y="572"/>
      <point x="142" y="572" type="curve" smooth="yes"/>
      <point x="67" y="572"/>
      <point x="9" y="529"/>
      <point x="9" y="469" type="curve" smooth="yes"/>
      <point x="9" y="411"/>
      <point x="61" y="370"/>
    </contour>
  </outline>
</glyph>
<glyph name="logicalnot" format="2">
  <advance width="646"/>
  <unicode hex="00AC"/>
  <outline>
    <contour>
      <point x="76" y="424" type="line"/>
      <point x="76" y="277" type="line"/>
      <point x="414" y="277" type="line"/>
      <point x="414" y="105" type="line"/>
      <point x="570" y="105" type="line"/>
      <point x="570" y="424" type="line"/>
    </contour>
  </outline>
</glyph>
<glyph name="plusminus" format="2">
  <advance width="670"/>
  <unicode hex="00B1"/>
  <outline>
    <contour>
      <point x="582" y="0" type="line"/>
      <point x="582" y="147" type="line"/>
      <point x="88" y="147" type="line"/>
      <point x="88" y="0" type="line"/>
    </contour>
    <contour>
      <point x="413" y="222" type="line"/>
      <point x="413" y="677" type="line"/>
      <point x="257" y="677" type="line"/>
      <point x="257" y="222" type="line"/>
    </contour>
    <contour>
      <point x="582" y="380" type="line"/>
      <point x="582" y="520" type="line"/>
      <point x="88" y="520" type="line"/>
      <point x="88" y="380" type="line"/>
    </contour>
  </outline>
</glyph>
<glyph name="two.superior" format="2">
  <advance width="394"/>
  <unicode hex="00B2"/>
  <outline>
    <contour>
      <point x="361" y="275" type="line"/>
      <point x="361" y="379" type="line"/>
      <point x="209" y="379" type="line"/>
      <point x="262" y="413" type="line" smooth="yes"/>
      <point x="335" y="460"/>
      <point x="357" y="502"/>
      <point x="357" y="556" type="curve" smooth="yes"/>
      <point x="357" y="636"/>
      <point x="291" y="694"/>
      <point x="193" y="694" type="curve" smooth="yes"/>
      <point x="125" y="694"/>
      <point x="69" y="667"/>
      <point x="23" y="613" type="curve"/>
      <point x="95" y="540" type="line"/>
      <point x="127" y="572"/>
      <point x="155" y="589"/>
      <point x="190" y="589" type="curve" smooth="yes"/>
      <point x="217" y="589"/>
      <point x="237" y="574"/>
      <point x="237" y="551" type="curve" smooth="yes"/>
      <point x="237" y="529"/>
      <point x="227" y="511"/>
      <point x="184" y="480" type="curve" smooth="yes"/>
      <point x="31" y="369" type="line"/>
      <point x="31" y="275" type="line"/>
    </contour>
  </outline>
</glyph>
<glyph name="three.superior" format="2">
  <advance width="389"/>
  <unicode hex="00B3"/>
  <outline>
    <contour>
      <point x="193" y="267" type="curve" smooth="yes"/>
      <point x="296" y="267"/>
      <point x="362" y="319"/>
      <point x="362" y="393" type="curve" smooth="yes"/>
      <point x="362" y="444"/>
      <point x="324" y="477"/>
      <point x="277" y="487" type="curve"/>
      <point x="324" y="501"/>
      <point x="353" y="537"/>
      <point x="353" y="581" type="curve" smooth="yes"/>
      <point x="353" y="646"/>
      <point x="294" y="694"/>
      <point x="192" y="694" type="curve" smooth="yes"/>
      <point x="113" y="694"/>
      <point x="61" y="663"/>
      <point x="25" y="621" type="curve"/>
      <point x="89" y="550" type="line"/>
      <point x="116" y="574"/>
      <point x="145" y="591"/>
      <point x="179" y="591" type="curve" smooth="yes"/>
      <point x="213" y="591"/>
      <point x="234" y="579"/>
      <point x="234" y="559" type="curve" smooth="yes"/>
      <point x="234" y="540"/>
      <point x="217" y="530"/>
      <point x="178" y="530" type="curve" smooth="yes"/>
      <point x="129" y="530" type="line"/>
      <point x="129" y="433" type="line"/>
      <point x="179" y="433" type="line" smooth="yes"/>
      <point x="228" y="434"/>
      <point x="242" y="423"/>
      <point x="242" y="403" type="curve" smooth="yes"/>
      <point x="242" y="385"/>
      <point x="223" y="371"/>
      <point x="186" y="371" type="curve" smooth="yes"/>
      <point x="151" y="371"/>
      <point x="112" y="384"/>
      <point x="82" y="413" type="curve"/>
      <point x="16" y="336" type="line"/>
      <point x="55" y="295"/>
      <point x="114" y="267"/>
    </contour>
  </outline>
</glyph>
<glyph name="acute" format="2">
  <advance width="298"/>
  <unicode hex="00B4"/>
  <anchor x="77" y="517" name="_top"/>
  <anchor x="77" y="704" name="top"/>
  <outline>
    <contour>
      <point x="138" y="574" type="line"/>
      <point x="290" y="710" type="line"/>
      <point x="124" y="738" type="line"/>
      <point x="12" y="574" type="line"/>
    </contour>
  </outline>
</glyph>
<glyph name="micro" format="2">
  <advance width="623"/>
  <unicode hex="00B5"/>
  <outline>
    <component base="u"/>
    <contour>
      <point x="227" y="-172" type="line"/>
      <point x="227" y="237" type="line"/>
      <point x="44" y="237" type="line"/>
      <point x="44" y="-172" type="line"/>
    </contour>
  </outline>
</glyph>
<glyph name="one.superior" format="2">
  <advance width="295"/>
  <unicode hex="00B9"/>
  <outline>
    <contour>
      <point x="245" y="275" type="line"/>
      <point x="245" y="687" type="line"/>
      <point x="152" y="687" type="line"/>
      <point x="14" y="595" type="line"/>
      <point x="60" y="514" type="line"/>
      <point x="129" y="556" type="line"/>
      <point x="129" y="275" type="line"/>
    </contour>
  </outline>
</glyph>
<glyph name="ordmasculine" format="2">
  <advance width="373"/>
  <unicode hex="00BA"/>
  <anchor x="187" y="687" name="top"/>
  <outline>
    <contour>
      <point x="187" y="370" type="curve" smooth="yes"/>
      <point x="283" y="370"/>
      <point x="362" y="443"/>
      <point x="362" y="532" type="curve" smooth="yes"/>
      <point x="362" y="622"/>
      <point x="283" y="694"/>
      <point x="187" y="694" type="curve" smooth="yes"/>
      <point x="90" y="694"/>
      <point x="11" y="622"/>
      <point x="11" y="532" type="curve" smooth="yes"/>
      <point x="11" y="443"/>
      <point x="90" y="370"/>
    </contour>
    <contour>
      <point x="187" y="466" type="curve" smooth="yes"/>
      <point x="150" y="466"/>
      <point x="120" y="496"/>
      <point x="120" y="532" type="curve" smooth="yes"/>
      <point x="120" y="569"/>
      <point x="150" y="598"/>
      <point x="187" y="598" type="curve" smooth="yes"/>
      <point x="223" y="598"/>
      <point x="253" y="569"/>
      <point x="253" y="532" type="curve" smooth="yes"/>
      <point x="253" y="496"/>
      <point x="223" y="466"/>
    </contour>
  </outline>
</glyph>
<glyph name="Eth" format="2">
  <advance width="794"/>
  <unicode hex="00D0"/>
  <outline>
    <contour>
      <point x="360" y="0" type="line" smooth="yes"/>
      <point x="600" y="0"/>
      <point x="770" y="143"/>
      <point x="770" y="344" type="curve" smooth="yes"/>
      <point x="770" y="545"/>
      <point x="600" y="687"/>
      <point x="360" y="687" type="curve" smooth="yes"/>
      <point x="104" y="687" type="line"/>
      <point x="104" y="0" type="line"/>
    </contour>
    <contour>
      <point x="298" y="511" type="line"/>
      <point x="392" y="511" type="line" smooth="yes"/>
      <point x="496" y="511"/>
      <point x="570" y="442"/>
      <point x="570" y="344" type="curve" smooth="yes"/>
      <point x="570" y="246"/>
      <point x="496" y="176"/>
      <point x="392" y="176" type="curve" smooth="yes"/>
      <point x="298" y="176" type="line"/>
    </contour>
    <contour>
      <point x="418" y="258" type="line"/>
      <point x="419" y="431" type="line"/>
      <point x="20" y="431" type="line"/>
      <point x="20" y="258" type="line"/>
    </contour>
  </outline>
</glyph>
<glyph name="multiply" format="2">
  <advance width="557"/>
  <unicode hex="00D7"/>
  <outline>
    <contour>
      <point x="508" y="457" type="line"/>
      <point x="402" y="563" type="line"/>
      <point x="49" y="210" type="line"/>
      <point x="155" y="104" type="line"/>
    </contour>
    <contour>
      <point x="512" y="214" type="line"/>
      <point x="159" y="567" type="line"/>
      <point x="46" y="454" type="line"/>
      <point x="399" y="101" type="line"/>
    </contour>
  </outline>
</glyph>
<glyph name="thorn" format="2">
  <advance width="690"/>
  <unicode hex="00FE"/>
  <outline>
    <contour>
      <point x="430" y="-12" type="curve" smooth="yes"/>
      <point x="569" y="-12"/>
      <point x="667" y="100"/>
      <point x="667" y="259" type="curve" smooth="yes"/>
      <point x="667" y="417"/>
      <point x="569" y="529"/>
      <point x="430" y="529" type="curve" smooth="yes"/>
      <point x="294" y="529"/>
      <point x="197" y="417"/>
      <point x="197" y="259" type="curve" smooth="yes"/>
      <point x="197" y="100"/>
      <point x="294" y="-12"/>
    </contour>
    <contour>
      <point x="369" y="148" type="curve" smooth="yes"/>
      <point x="308" y="148"/>
      <point x="265" y="194"/>
      <point x="265" y="259" type="curve" smooth="yes"/>
      <point x="265" y="323"/>
      <point x="308" y="369"/>
      <point x="369" y="369" type="curve" smooth="yes"/>
      <point x="436" y="369"/>
      <point x="483" y="323"/>
      <point x="483" y="259" type="curve" smooth="yes"/>
      <point x="483" y="194"/>
      <point x="436" y="148"/>
    </contour>
    <contour>
      <point x="265" y="-172" type="line"/>
      <point x="265" y="699" type="line"/>
      <point x="72" y="699" type="line"/>
      <point x="72" y="-172" type="line"/>
    </contour>
  </outline>
</glyph>
<glyph name="dcroat" format="2">
  <advance width="695"/>
  <unicode hex="0111"/>
  <outline>
    <contour>
      <point x="680" y="565" type="line"/>
      <point x="680" y="655" type="line"/>
      <point x="290" y="655" type="line"/>
      <point x="290" y="565" type="line"/>
    </contour>
    <contour>
      <point x="260" y="-12" type="curve" smooth="yes"/>
      <point x="396" y="-12"/>
      <point x="493" y="100"/>
      <point x="493" y="259" type="curve" smooth="yes"/>
      <point x="493" y="417"/>
      <point x="396" y="529"/>
      <point x="260" y="529" type="curve" smooth="yes"/>
      <point x="121" y="529"/>
      <point x="23" y="417"/>
      <point x="23" y="259" type="curve" smooth="yes"/>
      <point x="23" y="100"/>
      <point x="121" y="-12"/>
    </contour>
    <contour>
      <point x="321" y="148" type="curve" smooth="yes"/>
      <point x="254" y="148"/>
      <point x="207" y="194"/>
      <point x="207" y="259" type="curve" smooth="yes"/>
      <point x="207" y="323"/>
      <point x="254" y="369"/>
      <point x="321" y="369" type="curve" smooth="yes"/>
      <point x="382" y="369"/>
      <point x="425" y="323"/>
      <point x="425" y="259" type="curve" smooth="yes"/>
      <point x="425" y="194"/>
      <point x="382" y="148"/>
    </contour>
    <contour>
      <point x="618" y="0" type="line"/>
      <point x="618" y="699" type="line"/>
      <point x="425" y="699" type="line"/>
      <point x="425" y="0" type="line"/>
    </contour>
  </outline>
</glyph>
<glyph name="Hbar" format="2">
  <advance width="771"/>
  <unicode hex="0126"/>
  <anchor x="386" y="874" name="top"/>
  <anchor x="386" y="457" name="_top"/>
  <outline>
    <component base="H"/>
    <contour>
      <point x="751" y="513" type="line"/>
      <point x="751" y="619" type="line"/>
      <point x="20" y="619" type="line"/>
      <point x="20" y="513" type="line"/>
    </contour>
  </outline>
</glyph>
<glyph name="dotlessi" format="2">
  <advance width="305"/>
  <unicode hex="0131"/>
  <anchor x="249" y="0" name="bottom"/>
  <anchor x="153" y="517" name="top"/>
  <outline>
    <contour>
      <point x="249" y="0" type="line"/>
      <point x="249" y="517" type="line"/>
      <point x="56" y="517" type="line"/>
      <point x="56" y="0" type="line"/>
    </contour>
  </outline>
</glyph>
<glyph name="kgreenlandic" format="2">
  <advance width="620"/>
  <unicode hex="0138"/>
  <anchor x="321" y="0" name="bottom"/>
  <outline>
    <contour>
      <point x="257" y="0" type="line"/>
      <point x="257" y="517" type="line"/>
      <point x="64" y="517" type="line"/>
      <point x="64" y="0" type="line"/>
    </contour>
    <contour>
      <point x="248" y="107" type="line"/>
      <point x="595" y="517" type="line"/>
      <point x="379" y="517" type="line"/>
      <point x="248" y="323" type="line"/>
    </contour>
    <contour>
      <point x="292" y="184" type="line"/>
      <point x="394" y="0" type="line"/>
      <point x="610" y="0" type="line"/>
      <point x="400" y="332" type="line"/>
    </contour>
  </outline>
</glyph>
<glyph name="lcaron" format="2">
  <advance width="479"/>
  <unicode hex="013E"/>
  <anchor x="160" y="0" name="bottom"/>
  <anchor x="160" y="699" name="top"/>
  <outline>
    <contour>
      <point x="257" y="0" type="line"/>
      <point x="257" y="699" type="line"/>
      <point x="64" y="699" type="line"/>
      <point x="64" y="0" type="line"/>
    </contour>
    <contour>
      <point x="380" y="421" type="line"/>
      <point x="435" y="466"/>
      <point x="473" y="534"/>
      <point x="473" y="585" type="curve" smooth="yes"/>
      <point x="473" y="652"/>
      <point x="437" y="699"/>
      <point x="386" y="699" type="curve" smooth="yes"/>
      <point x="337" y="699"/>
      <point x="302" y="663"/>
      <point x="302" y="612" type="curve" smooth="yes"/>
      <point x="302" y="562"/>
      <point x="335" y="527"/>
      <point x="383" y="527" type="curve"/>
      <point x="377" y="504"/>
      <point x="357" y="476"/>
      <point x="334" y="457" type="curve"/>
    </contour>
  </outline>
</glyph>
<glyph name="lslash" format="2">
  <advance width="387"/>
  <unicode hex="0142"/>
  <anchor x="193" y="0" name="bottom"/>
  <anchor x="193" y="699" name="top"/>
  <outline>
    <contour>
      <point x="367" y="350" type="line"/>
      <point x="367" y="517" type="line"/>
      <point x="19" y="345" type="line"/>
      <point x="19" y="178" type="line"/>
    </contour>
    <contour>
      <point x="290" y="0" type="line"/>
      <point x="290" y="699" type="line"/>
      <point x="97" y="699" type="line"/>
      <point x="97" y="0" type="line"/>
    </contour>
  </outline>
</glyph>
<glyph name="eng" format="2">
  <advance width="629"/>
  <unicode hex="014B"/>
  <anchor x="314" y="0" name="bottom"/>
  <anchor x="486" y="517" name="top"/>
  <outline>
    <component base="n"/>
    <contour>
      <point x="401" y="-178" type="curve" smooth="yes"/>
      <point x="509" y="-178"/>
      <point x="585" y="-102"/>
      <point x="585" y="6" type="curve" smooth="yes"/>
      <point x="585" y="217" type="line"/>
      <point x="401" y="217" type="line"/>
      <point x="401" y="30" type="line" smooth="yes"/>
      <point x="401" y="-1"/>
      <point x="374" y="-23"/>
      <point x="348" y="-23" type="curve" smooth="yes"/>
      <point x="332" y="-23"/>
      <point x="313" y="-20"/>
      <point x="301" y="-15" type="curve"/>
      <point x="283" y="-154" type="line"/>
      <point x="311" y="-168"/>
      <point x="360" y="-178"/>
    </contour>
  </outline>
</glyph>
<glyph name="Schwa" format="2">
  <advance width="758"/>
  <unicode hex="018F"/>
  <anchor x="372" y="703" name="bottom"/>
  <anchor x="372" y="-0" name="top"/>
  <outline>
    <contour>
      <point x="362" y="703" type="curve" smooth="yes"/>
      <point x="259" y="703"/>
      <point x="142" y="660"/>
      <point x="81" y="597" type="curve"/>
      <point x="201" y="474" type="line"/>
      <point x="245" y="513"/>
      <point x="311" y="539"/>
      <point x="370" y="539" type="curve" smooth="yes"/>
      <point x="471" y="539"/>
      <point x="536" y="455"/>
      <point x="536" y="343" type="curve" smooth="yes"/>
      <point x="536" y="228"/>
      <point x="469" y="148"/>
      <point x="371" y="148" type="curve" smooth="yes"/>
      <point x="278" y="148"/>
      <point x="224" y="228"/>
      <point x="224" y="334" type="curve"/>
      <point x="163" y="276" type="line"/>
      <point x="658" y="276" type="line"/>
      <point x="658" y="398" type="line"/>
      <point x="24" y="398" type="line"/>
      <point x="24" y="140"/>
      <point x="155" y="-16"/>
      <point x="372" y="-16" type="curve" smooth="yes"/>
      <point x="578" y="-16"/>
      <point x="734" y="133"/>
      <point x="734" y="342" type="curve" smooth="yes"/>
      <point x="734" y="553"/>
      <point x="572" y="703"/>
    </contour>
  </outline>
</glyph>
<glyph name="Ohorn" format="2">
  <advance width="815"/>
  <unicode hex="01A0"/>
  <outline>
    <contour>
      <point x="408" y="164" type="curve" smooth="yes"/>
      <point x="310" y="164"/>
      <point x="234" y="248"/>
      <point x="234" y="344" type="curve" smooth="yes"/>
      <point x="234" y="441"/>
      <point x="310" y="523"/>
      <point x="408" y="523" type="curve" smooth="yes"/>
      <point x="506" y="523"/>
      <point x="582" y="441"/>
      <point x="582" y="344" type="curve" smooth="yes"/>
      <point x="582" y="247"/>
      <point x="507" y="164"/>
    </contour>
    <contour>
      <point x="408" y="699" type="curve" smooth="yes"/>
      <point x="210" y="699"/>
      <point x="34" y="547"/>
      <point x="34" y="344" type="curve" smooth="yes"/>
      <point x="34" y="141"/>
      <point x="210" y="-12"/>
      <point x="408" y="-12" type="curve" smooth="yes"/>
      <point x="606" y="-12"/>
      <point x="782" y="141"/>
      <point x="782" y="344" type="curve" smooth="yes"/>
      <point x="782" y="441"/>
      <point x="743" y="524"/>
      <point x="674" y="591" type="curve"/>
      <point x="757" y="604"/>
      <point x="815" y="740"/>
      <point x="815" y="814" type="curve"/>
      <point x="651" y="814" type="line"/>
      <point x="651" y="744"/>
      <point x="609" y="687"/>
      <point x="536" y="687" type="curve" smooth="yes"/>
      <point x="529" y="687" type="line" smooth="yes"/>
      <point x="488" y="687"/>
      <point x="449" y="699"/>
    </contour>
  </outline>
</glyph>
<glyph name="ohorn" format="2">
  <advance width="677"/>
  <unicode hex="01A1"/>
  <outline>
    <contour>
      <point x="319" y="148" type="curve" smooth="yes"/>
      <point x="257" y="148"/>
      <point x="207" y="197"/>
      <point x="207" y="259" type="curve" smooth="yes"/>
      <point x="207" y="321"/>
      <point x="258" y="369"/>
      <point x="319" y="369" type="curve" smooth="yes"/>
      <point x="379" y="369"/>
      <point x="430" y="320"/>
      <point x="430" y="259" type="curve" smooth="yes"/>
      <point x="430" y="199"/>
      <point x="379" y="148"/>
    </contour>
    <contour>
      <point x="319" y="529" type="curve" smooth="yes"/>
      <point x="167" y="529"/>
      <point x="27" y="417"/>
      <point x="27" y="259" type="curve" smooth="yes"/>
      <point x="27" y="102"/>
      <point x="168" y="-12"/>
      <point x="319" y="-12" type="curve" smooth="yes"/>
      <point x="470" y="-12"/>
      <point x="610" y="102"/>
      <point x="610" y="259" type="curve" smooth="yes"/>
      <point x="610" y="322"/>
      <point x="588" y="379"/>
      <point x="546" y="426" type="curve"/>
      <point x="628" y="462"/>
      <point x="676" y="557"/>
      <point x="676" y="644" type="curve"/>
      <point x="512" y="644" type="line"/>
      <point x="512" y="582"/>
      <point x="475" y="517"/>
      <point x="409" y="517" type="curve" smooth="yes"/>
      <point x="403" y="517" type="line" smooth="yes"/>
      <point x="388" y="517"/>
      <point x="350" y="529"/>
    </contour>
  </outline>
</glyph>
<glyph name="Uhorn" format="2">
  <advance width="813"/>
  <unicode hex="01AF"/>
  <outline>
    <contour>
      <point x="54" y="305" type="line" smooth="yes"/>
      <point x="54" y="112"/>
      <point x="192" y="-12"/>
      <point x="381" y="-12" type="curve" smooth="yes"/>
      <point x="570" y="-12"/>
      <point x="708" y="113"/>
      <point x="708" y="305" type="curve" smooth="yes"/>
      <point x="708" y="585" type="line"/>
      <point x="806" y="630"/>
      <point x="863" y="699"/>
      <point x="863" y="814" type="curve"/>
      <point x="699" y="814" type="line"/>
      <point x="699" y="743"/>
      <point x="659" y="687"/>
      <point x="584" y="687" type="curve" smooth="yes"/>
      <point x="514" y="687" type="line"/>
      <point x="514" y="315" type="line" smooth="yes"/>
      <point x="514" y="236"/>
      <point x="466" y="164"/>
      <point x="381" y="164" type="curve" smooth="yes"/>
      <point x="296" y="164"/>
      <point x="248" y="236"/>
      <point x="248" y="315" type="curve" smooth="yes"/>
      <point x="248" y="687" type="line"/>
      <point x="54" y="687" type="line"/>
    </contour>
  </outline>
</glyph>
<glyph name="uhorn" format="2">
  <advance width="683"/>
  <unicode hex="01B0"/>
  <outline>
    <contour>
      <point x="577" y="415" type="line"/>
      <point x="674" y="444"/>
      <point x="733" y="546"/>
      <point x="733" y="644" type="curve"/>
      <point x="569" y="644" type="line"/>
      <point x="569" y="573"/>
      <point x="529" y="517"/>
      <point x="454" y="517" type="curve" smooth="yes"/>
      <point x="384" y="517" type="line"/>
      <point x="384" y="227" type="line" smooth="yes"/>
      <point x="384" y="184"/>
      <point x="355" y="148"/>
      <point x="310" y="148" type="curve" smooth="yes"/>
      <point x="261" y="148"/>
      <point x="232" y="186"/>
      <point x="232" y="233" type="curve" smooth="yes"/>
      <point x="232" y="517" type="line"/>
      <point x="48" y="517" type="line"/>
      <point x="48" y="188" type="line" smooth="yes"/>
      <point x="48" y="75"/>
      <point x="122" y="-12"/>
      <point x="238" y="-12" type="curve" smooth="yes"/>
      <point x="295" y="-12"/>
      <point x="347" y="6"/>
      <point x="384" y="52" type="curve"/>
      <point x="384" y="0" type="line"/>
      <point x="577" y="0" type="line"/>
    </contour>
  </outline>
</glyph>
<glyph name="schwa" format="2">
  <advance width="581"/>
  <unicode hex="0259"/>
  <anchor x="275" y="529" name="bottom"/>
  <anchor x="283" y="0" name="top"/>
  <outline>
    <contour>
      <point x="275" y="529" type="curve" smooth="yes"/>
      <point x="196" y="529"/>
      <point x="108" y="496"/>
      <point x="62" y="449" type="curve"/>
      <point x="168" y="342" type="line"/>
      <point x="202" y="369"/>
      <point x="244" y="385"/>
      <point x="283" y="385" type="curve" smooth="yes"/>
      <point x="346" y="385"/>
      <point x="386" y="332"/>
      <point x="386" y="258" type="curve" smooth="yes"/>
      <point x="386" y="184"/>
      <point x="346" y="132"/>
      <point x="283" y="132" type="curve" smooth="yes"/>
      <point x="227" y="132"/>
      <point x="192" y="182"/>
      <point x="192" y="252" type="curve"/>
      <point x="145" y="203" type="line"/>
      <point x="502" y="203" type="line"/>
      <point x="502" y="304" type="line"/>
      <point x="14" y="304" type="line"/>
      <point x="14" y="105"/>
      <point x="117" y="-12"/>
      <point x="283" y="-12" type="curve" smooth="yes"/>
      <point x="443" y="-12"/>
      <point x="561" y="99"/>
      <point x="561" y="257" type="curve" smooth="yes"/>
      <point x="561" y="416"/>
      <point x="440" y="529"/>
    </contour>
  </outline>
</glyph>
<glyph name="dotaccent" format="2">
  <advance width="215"/>
  <unicode hex="02D9"/>
  <anchor x="108" y="517" name="_top"/>
  <anchor x="108" y="0" name="bottom"/>
  <anchor x="108" y="704" name="top"/>
  <outline>
    <contour>
      <point x="108" y="575" type="curve" smooth="yes"/>
      <point x="155" y="575"/>
      <point x="194" y="614"/>
      <point x="194" y="662" type="curve" smooth="yes"/>
      <point x="194" y="708"/>
      <point x="155" y="748"/>
      <point x="108" y="748" type="curve" smooth="yes"/>
      <point x="58" y="748"/>
      <point x="21" y="708"/>
      <point x="21" y="662" type="curve" smooth="yes"/>
      <point x="21" y="614"/>
      <point x="58" y="575"/>
    </contour>
  </outline>
</glyph>
<glyph name="dotaccentcomb" format="2">
  <advance width="239"/>
  <unicode hex="0307"/>
  <anchor x="120" y="517" name="_top"/>
  <outline>
    <contour>
      <point x="120" y="572" type="curve" smooth="yes"/>
      <point x="174" y="572"/>
      <point x="218" y="618"/>
      <point x="218" y="672" type="curve" smooth="yes"/>
      <point x="218" y="724"/>
      <point x="174" y="770"/>
      <point x="120" y="770" type="curve" smooth="yes"/>
      <point x="64" y="770"/>
      <point x="20" y="724"/>
      <point x="20" y="672" type="curve" smooth="yes"/>
      <point x="20" y="618"/>
      <point x="64" y="572"/>
    </contour>
  </outline>
</glyph>
<glyph name="hookabovecomb" format="2">
  <advance width="555"/>
  <unicode hex="0309"/>
  <outline>
    <contour>
      <point x="229" y="569" type="line"/>
      <point x="322" y="569" type="line"/>
      <point x="322" y="578" type="line"/>
      <point x="375" y="593"/>
      <point x="430" y="623"/>
      <point x="430" y="685" type="curve" smooth="yes"/>
      <point x="430" y="758"/>
      <point x="356" y="770"/>
      <point x="298" y="770" type="curve" smooth="yes"/>
      <point x="255" y="770"/>
      <point x="212" y="762"/>
      <point x="171" y="748" type="curve"/>
      <point x="178" y="654" type="line"/>
      <point x="205" y="666"/>
      <point x="237" y="677"/>
      <point x="267" y="677" type="curve" smooth="yes"/>
      <point x="278" y="677"/>
      <point x="299" y="676"/>
      <point x="299" y="661" type="curve" smooth="yes"/>
      <point x="299" y="638"/>
      <point x="249" y="617"/>
      <point x="229" y="611" type="curve"/>
    </contour>
  </outline>
</glyph>
<glyph name="dblgravecomb" format="2">
  <advance width="662"/>
  <unicode hex="030F"/>
  <outline>
    <contour>
      <point x="321" y="710" type="line"/>
      <point x="473" y="574" type="line"/>
      <point x="599" y="574" type="line"/>
      <point x="487" y="738" type="line"/>
    </contour>
    <contour>
      <point x="63" y="710" type="line"/>
      <point x="215" y="574" type="line"/>
      <point x="341" y="574" type="line"/>
      <point x="229" y="738" type="line"/>
    </contour>
  </outline>
</glyph>
<glyph name="breveinvertedcomb" format="2">
  <advance width="468"/>
  <unicode hex="0311"/>
  <outline>
    <contour>
      <point x="234" y="720" type="curve" smooth="yes"/>
      <point x="168" y="720"/>
      <point x="110" y="696"/>
      <point x="63" y="649" type="curve"/>
      <point x="137" y="575" type="line"/>
      <point x="163" y="601"/>
      <point x="196" y="618"/>
      <point x="234" y="618" type="curve" smooth="yes"/>
      <point x="272" y="618"/>
      <point x="305" y="601"/>
      <point x="331" y="575" type="curve"/>
      <point x="405" y="649" type="line"/>
      <point x="358" y="695"/>
      <point x="300" y="720"/>
    </contour>
  </outline>
</glyph>
<glyph name="horncomb" format="2">
  <advance width="628"/>
  <unicode hex="031B"/>
  <outline>
    <contour>
      <point x="454" y="517" type="curve" smooth="yes"/>
      <point x="384" y="517" type="line"/>
      <point x="384" y="395" type="line"/>
      <point x="453" y="395" type="line" smooth="yes"/>
      <point x="609" y="395"/>
      <point x="733" y="480"/>
      <point x="733" y="644" type="curve"/>
      <point x="569" y="644" type="line"/>
      <point x="569" y="574"/>
      <point x="529" y="517"/>
    </contour>
  </outline>
</glyph>
<glyph name="dotbelowcomb" format="2">
  <advance width="590"/>
  <unicode hex="0323"/>
  <outline>
    <contour>
      <point x="308" y="-58" type="curve" smooth="yes"/>
      <point x="260" y="-58"/>
      <point x="222" y="-97"/>
      <point x="222" y="-145" type="curve" smooth="yes"/>
      <point x="222" y="-192"/>
      <point x="261" y="-231"/>
      <point x="308" y="-231" type="curve" smooth="yes"/>
      <point x="356" y="-231"/>
      <point x="395" y="-193"/>
      <point x="395" y="-145" type="curve" smooth="yes"/>
      <point x="395" y="-95"/>
      <point x="358" y="-58"/>
    </contour>
  </outline>
</glyph>
<glyph name="commaaccentcomb" format="2">
  <advance width="213"/>
  <unicode hex="0326"/>
  <anchor x="104" y="0" name="_bottom"/>
  <anchor x="104" y="517" name="_top"/>
  <outline>
    <contour>
      <point x="98" y="-301" type="line"/>
      <point x="153" y="-256"/>
      <point x="191" y="-188"/>
      <point x="191" y="-128" type="curve" smooth="yes"/>
      <point x="191" y="-70"/>
      <point x="155" y="-23"/>
      <point x="104" y="-23" type="curve" smooth="yes"/>
      <point x="55" y="-23"/>
      <point x="20" y="-59"/>
      <point x="20" y="-110" type="curve" smooth="yes"/>
      <point x="20" y="-160"/>
      <point x="53" y="-195"/>
      <point x="101" y="-195" type="curve"/>
      <point x="95" y="-218"/>
      <point x="75" y="-246"/>
      <point x="52" y="-265" type="curve"/>
    </contour>
  </outline>
</glyph>
<glyph name="udotbelow" format="2">
  <advance width="628"/>
  <unicode hex="1EE5"/>
  <outline>
    <contour>
      <point x="307" y="-64" type="curve" smooth="yes"/>
      <point x="259" y="-64"/>
      <point x="220" y="-102"/>
      <point x="220" y="-150" type="curve" smooth="yes"/>
      <point x="220" y="-200"/>
      <point x="257" y="-237"/>
      <point x="307" y="-237" type="curve" smooth="yes"/>
      <point x="355" y="-237"/>
      <point x="393" y="-198"/>
      <point x="393" y="-150" type="curve" smooth="yes"/>
      <point x="393" y="-103"/>
      <point x="354" y="-64"/>
    </contour>
    <contour>
      <point x="384" y="227" type="line" smooth="yes"/>
      <point x="384" y="184"/>
      <point x="355" y="148"/>
      <point x="310" y="148" type="curve" smooth="yes"/>
      <point x="261" y="148"/>
      <point x="232" y="186"/>
      <point x="232" y="233" type="curve" smooth="yes"/>
      <point x="232" y="517" type="line"/>
      <point x="48" y="517" type="line"/>
      <point x="48" y="188" type="line" smooth="yes"/>
      <point x="48" y="75"/>
      <point x="122" y="-12"/>
      <point x="238" y="-12" type="curve" smooth="yes"/>
      <point x="295" y="-12"/>
      <point x="347" y="6"/>
      <point x="384" y="52" type="curve"/>
      <point x="384" y="0" type="line"/>
      <point x="577" y="0" type="line"/>
      <point x="577" y="517" type="line"/>
      <point x="384" y="517" type="line"/>
    </contour>
  </outline>
</glyph>
<glyph name="fraction" format="2">
  <advance width="188"/>
  <unicode hex="2044"/>
  <outline>
    <contour>
      <point x="-77" y="0" type="line"/>
      <point x="377" y="687" type="line"/>
      <point x="267" y="687" type="line"/>
      <point x="-187" y="0" type="line"/>
    </contour>
  </outline>
</glyph>
<glyph name="zero.superior" format="2">
  <advance width="442"/>
  <unicode hex="2070"/>
  <outline>
    <contour>
      <point x="221" y="268" type="curve" smooth="yes"/>
      <point x="335" y="268"/>
      <point x="415" y="356"/>
      <point x="415" y="481" type="curve" smooth="yes"/>
      <point x="415" y="606"/>
      <point x="335" y="694"/>
      <point x="221" y="694" type="curve" smooth="yes"/>
      <point x="107" y="694"/>
      <point x="26" y="606"/>
      <point x="26" y="481" type="curve" smooth="yes"/>
      <point x="26" y="356"/>
      <point x="107" y="268"/>
    </contour>
    <contour>
      <point x="221" y="373" type="curve" smooth="yes"/>
      <point x="177" y="373"/>
      <point x="146" y="418"/>
      <point x="146" y="481" type="curve" smooth="yes"/>
      <point x="146" y="544"/>
      <point x="177" y="589"/>
      <point x="221" y="589" type="curve" smooth="yes"/>
      <point x="265" y="589"/>
      <point x="295" y="544"/>
      <point x="295" y="481" type="curve" smooth="yes"/>
      <point x="295" y="418"/>
      <point x="265" y="373"/>
    </contour>
  </outline>
</glyph>
<glyph name="four.superior" format="2">
  <advance width="415"/>
  <unicode hex="2074"/>
  <outline>
    <contour>
      <point x="344" y="275" type="line"/>
      <point x="344" y="348" type="line"/>
      <point x="394" y="348" type="line"/>
      <point x="394" y="444" type="line"/>
      <point x="344" y="444" type="line"/>
      <point x="344" y="687" type="line"/>
      <point x="202" y="687" type="line"/>
      <point x="20" y="436" type="line"/>
      <point x="29" y="348" type="line"/>
      <point x="228" y="348" type="line"/>
      <point x="228" y="275" type="line"/>
    </contour>
    <contour>
      <point x="228" y="568" type="line"/>
      <point x="228" y="444" type="line"/>
      <point x="139" y="444" type="line"/>
    </contour>
  </outline>
</glyph>
<glyph name="five.superior" format="2">
  <advance width="397"/>
  <unicode hex="2075"/>
  <outline>
    <contour>
      <point x="193" y="267" type="curve" smooth="yes"/>
      <point x="301" y="267"/>
      <point x="369" y="324"/>
      <point x="369" y="415" type="curve" smooth="yes"/>
      <point x="369" y="501"/>
      <point x="305" y="547"/>
      <point x="233" y="547" type="curve" smooth="yes"/>
      <point x="202" y="547"/>
      <point x="176" y="538"/>
      <point x="157" y="525" type="curve"/>
      <point x="159" y="583" type="line"/>
      <point x="346" y="583" type="line"/>
      <point x="346" y="687" type="line"/>
      <point x="53" y="687" type="line"/>
      <point x="47" y="457" type="line"/>
      <point x="123" y="429" type="line"/>
      <point x="143" y="444"/>
      <point x="167" y="453"/>
      <point x="195" y="453" type="curve" smooth="yes"/>
      <point x="232" y="453"/>
      <point x="253" y="436"/>
      <point x="253" y="411" type="curve" smooth="yes"/>
      <point x="253" y="388"/>
      <point x="233" y="367"/>
      <point x="193" y="367" type="curve" smooth="yes"/>
      <point x="158" y="367"/>
      <point x="121" y="385"/>
      <point x="91" y="411" type="curve"/>
      <point x="25" y="329" type="line"/>
      <point x="66" y="291"/>
      <point x="121" y="267"/>
    </contour>
  </outline>
</glyph>
<glyph name="six.superior" format="2">
  <advance width="406"/>
  <unicode hex="2076"/>
  <outline>
    <contour>
      <point x="215" y="268" type="curve" smooth="yes"/>
      <point x="308" y="268"/>
      <point x="382" y="325"/>
      <point x="382" y="415" type="curve" smooth="yes"/>
      <point x="382" y="497"/>
      <point x="319" y="547"/>
      <point x="242" y="547" type="curve" smooth="yes"/>
      <point x="196" y="547"/>
      <point x="148" y="527"/>
      <point x="127" y="498" type="curve"/>
      <point x="139" y="384" type="line"/>
      <point x="141" y="425"/>
      <point x="168" y="454"/>
      <point x="205" y="454" type="curve" smooth="yes"/>
      <point x="235" y="454"/>
      <point x="262" y="438"/>
      <point x="262" y="410" type="curve" smooth="yes"/>
      <point x="262" y="385"/>
      <point x="240" y="366"/>
      <point x="208" y="366" type="curve" smooth="yes"/>
      <point x="157" y="366"/>
      <point x="148" y="396"/>
      <point x="148" y="474" type="curve" smooth="yes"/>
      <point x="148" y="550"/>
      <point x="176" y="593"/>
      <point x="233" y="593" type="curve" smooth="yes"/>
      <point x="265" y="593"/>
      <point x="287" y="583"/>
      <point x="312" y="565" type="curve"/>
      <point x="365" y="653" type="line"/>
      <point x="329" y="679"/>
      <point x="284" y="694"/>
      <point x="232" y="694" type="curve" smooth="yes"/>
      <point x="104" y="694"/>
      <point x="28" y="606"/>
      <point x="28" y="474" type="curve" smooth="yes"/>
      <point x="28" y="351"/>
      <point x="89" y="268"/>
    </contour>
  </outline>
</glyph>
<glyph name="seven.superior" format="2">
  <advance width="370"/>
  <unicode hex="2077"/>
  <outline>
    <contour>
      <point x="188" y="275" type="line"/>
      <point x="347" y="600" type="line"/>
      <point x="347" y="687" type="line"/>
      <point x="22" y="687" type="line"/>
      <point x="22" y="583" type="line"/>
      <point x="214" y="583" type="line"/>
      <point x="58" y="275" type="line"/>
    </contour>
  </outline>
</glyph>
<glyph name="eight.superior" format="2">
  <advance width="405"/>
  <unicode hex="2078"/>
  <outline>
    <contour>
      <point x="202" y="268" type="curve" smooth="yes"/>
      <point x="297" y="268"/>
      <point x="378" y="309"/>
      <point x="378" y="387" type="curve" smooth="yes"/>
      <point x="378" y="432"/>
      <point x="351" y="467"/>
      <point x="304" y="488" type="curve"/>
      <point x="344" y="507"/>
      <point x="367" y="537"/>
      <point x="367" y="581" type="curve" smooth="yes"/>
      <point x="367" y="654"/>
      <point x="290" y="694"/>
      <point x="202" y="694" type="curve" smooth="yes"/>
      <point x="116" y="694"/>
      <point x="38" y="655"/>
      <point x="38" y="580" type="curve" smooth="yes"/>
      <point x="38" y="534"/>
      <point x="64" y="505"/>
      <point x="101" y="488" type="curve"/>
      <point x="56" y="469"/>
      <point x="27" y="434"/>
      <point x="27" y="387" type="curve" smooth="yes"/>
      <point x="27" y="309"/>
      <point x="107" y="268"/>
    </contour>
    <contour>
      <point x="202" y="364" type="curve" smooth="yes"/>
      <point x="167" y="364"/>
      <point x="145" y="379"/>
      <point x="145" y="401" type="curve" smooth="yes"/>
      <point x="145" y="422"/>
      <point x="172" y="436"/>
      <point x="202" y="438" type="curve"/>
      <point x="233" y="436"/>
      <point x="260" y="422"/>
      <point x="260" y="401" type="curve" smooth="yes"/>
      <point x="260" y="379"/>
      <point x="237" y="364"/>
    </contour>
    <contour>
      <point x="202" y="527" type="curve"/>
      <point x="175" y="529"/>
      <point x="152" y="544"/>
      <point x="152" y="564" type="curve" smooth="yes"/>
      <point x="152" y="583"/>
      <point x="171" y="599"/>
      <point x="202" y="599" type="curve" smooth="yes"/>
      <point x="233" y="599"/>
      <point x="253" y="583"/>
      <point x="253" y="564" type="curve" smooth="yes"/>
      <point x="253" y="544"/>
      <point x="230" y="529"/>
    </contour>
  </outline>
</glyph>
<glyph name="nine.superior" format="2">
  <advance width="406"/>
  <unicode hex="2079"/>
  <outline>
    <contour>
      <point x="191" y="694" type="curve" smooth="yes"/>
      <point x="98" y="694"/>
      <point x="24" y="637"/>
      <point x="24" y="547" type="curve" smooth="yes"/>
      <point x="24" y="465"/>
      <point x="87" y="415"/>
      <point x="164" y="415" type="curve" smooth="yes"/>
      <point x="210" y="415"/>
      <point x="258" y="435"/>
      <point x="279" y="464" type="curve"/>
      <point x="267" y="578" type="line"/>
      <point x="265" y="537"/>
      <point x="238" y="508"/>
      <point x="201" y="508" type="curve" smooth="yes"/>
      <point x="171" y="508"/>
      <point x="144" y="524"/>
      <point x="144" y="552" type="curve" smooth="yes"/>
      <point x="144" y="577"/>
      <point x="166" y="596"/>
      <point x="198" y="596" type="curve" smooth="yes"/>
      <point x="249" y="596"/>
      <point x="258" y="566"/>
      <point x="258" y="488" type="curve" smooth="yes"/>
      <point x="258" y="412"/>
      <point x="230" y="369"/>
      <point x="173" y="369" type="curve" smooth="yes"/>
      <point x="141" y="369"/>
      <point x="119" y="379"/>
      <point x="94" y="397" type="curve"/>
      <point x="41" y="309" type="line"/>
      <point x="77" y="283"/>
      <point x="122" y="268"/>
      <point x="174" y="268" type="curve" smooth="yes"/>
      <point x="302" y="268"/>
      <point x="378" y="356"/>
      <point x="378" y="488" type="curve" smooth="yes"/>
      <point x="378" y="611"/>
      <point x="317" y="694"/>
    </contour>
  </outline>
</glyph>
<glyph name="zero.inferior" format="2">
  <advance width="442"/>
  <unicode hex="2080"/>
  <outline>
    <contour>
      <point x="221" y="-7" type="curve" smooth="yes"/>
      <point x="335" y="-7"/>
      <point x="415" y="81"/>
      <point x="415" y="206" type="curve" smooth="yes"/>
      <point x="415" y="331"/>
      <point x="335" y="419"/>
      <point x="221" y="419" type="curve" smooth="yes"/>
      <point x="107" y="419"/>
      <point x="26" y="331"/>
      <point x="26" y="206" type="curve" smooth="yes"/>
      <point x="26" y="81"/>
      <point x="107" y="-7"/>
    </contour>
    <contour>
      <point x="221" y="98" type="curve" smooth="yes"/>
      <point x="177" y="98"/>
      <point x="146" y="143"/>
      <point x="146" y="206" type="curve" smooth="yes"/>
      <point x="146" y="269"/>
      <point x="177" y="314"/>
      <point x="221" y="314" type="curve" smooth="yes"/>
      <point x="265" y="314"/>
      <point x="295" y="269"/>
      <point x="295" y="206" type="curve" smooth="yes"/>
      <point x="295" y="143"/>
      <point x="265" y="98"/>
    </contour>
  </outline>
</glyph>
<glyph name="one.inferior" format="2">
  <advance width="295"/>
  <unicode hex="2081"/>
  <outline>
    <contour>
      <point x="245" y="0" type="line"/>
      <point x="245" y="412" type="line"/>
      <point x="152" y="412" type="line"/>
      <point x="14" y="320" type="line"/>
      <point x="60" y="239" type="line"/>
      <point x="129" y="281" type="line"/>
      <point x="129" y="0" type="line"/>
    </contour>
  </outline>
</glyph>
<glyph name="two.inferior" format="2">
  <advance width="394"/>
  <unicode hex="2082"/>
  <outline>
    <contour>
      <point x="361" y="0" type="line"/>
      <point x="361" y="104" type="line"/>
      <point x="209" y="104" type="line"/>
      <point x="262" y="138" type="line" smooth="yes"/>
      <point x="335" y="185"/>
      <point x="357" y="227"/>
      <point x="357" y="281" type="curve" smooth="yes"/>
      <point x="357" y="361"/>
      <point x="291" y="419"/>
      <point x="193" y="419" type="curve" smooth="yes"/>
      <point x="125" y="419"/>
      <point x="69" y="392"/>
      <point x="23" y="338" type="curve"/>
      <point x="95" y="265" type="line"/>
      <point x="127" y="297"/>
      <point x="155" y="314"/>
      <point x="190" y="314" type="curve" smooth="yes"/>
      <point x="217" y="314"/>
      <point x="237" y="299"/>
      <point x="237" y="276" type="curve" smooth="yes"/>
      <point x="237" y="254"/>
      <point x="227" y="236"/>
      <point x="184" y="205" type="curve" smooth="yes"/>
      <point x="31" y="94" type="line"/>
      <point x="31" y="0" type="line"/>
    </contour>
  </outline>
</glyph>
<glyph name="three.inferior" format="2">
  <advance width="389"/>
  <unicode hex="2083"/>
  <outline>
    <contour>
      <point x="193" y="-8" type="curve" smooth="yes"/>
      <point x="296" y="-8"/>
      <point x="362" y="44"/>
      <point x="362" y="118" type="curve" smooth="yes"/>
      <point x="362" y="169"/>
      <point x="324" y="202"/>
      <point x="277" y="212" type="curve"/>
      <point x="324" y="226"/>
      <point x="353" y="262"/>
      <point x="353" y="306" type="curve" smooth="yes"/>
      <point x="353" y="371"/>
      <point x="294" y="419"/>
      <point x="192" y="419" type="curve" smooth="yes"/>
      <point x="113" y="419"/>
      <point x="61" y="388"/>
      <point x="25" y="346" type="curve"/>
      <point x="89" y="275" type="line"/>
      <point x="116" y="299"/>
      <point x="145" y="316"/>
      <point x="179" y="316" type="curve" smooth="yes"/>
      <point x="213" y="316"/>
      <point x="234" y="304"/>
      <point x="234" y="284" type="curve" smooth="yes"/>
      <point x="234" y="265"/>
      <point x="217" y="255"/>
      <point x="178" y="255" type="curve" smooth="yes"/>
      <point x="129" y="255" type="line"/>
      <point x="129" y="158" type="line"/>
      <point x="179" y="158" type="line" smooth="yes"/>
      <point x="228" y="159"/>
      <point x="242" y="148"/>
      <point x="242" y="128" type="curve" smooth="yes"/>
      <point x="242" y="110"/>
      <point x="223" y="96"/>
      <point x="186" y="96" type="curve" smooth="yes"/>
      <point x="151" y="96"/>
      <point x="112" y="109"/>
      <point x="82" y="138" type="curve"/>
      <point x="16" y="61" type="line"/>
      <point x="55" y="20"/>
      <point x="114" y="-8"/>
    </contour>
  </outline>
</glyph>
<glyph name="four.inferior" format="2">
  <advance width="415"/>
  <unicode hex="2084"/>
  <outline>
    <contour>
      <point x="344" y="0" type="line"/>
      <point x="344" y="73" type="line"/>
      <point x="394" y="73" type="line"/>
      <point x="394" y="169" type="line"/>
      <point x="344" y="169" type="line"/>
      <point x="344" y="412" type="line"/>
      <point x="202" y="412" type="line"/>
      <point x="20" y="161" type="line"/>
      <point x="29" y="73" type="line"/>
      <point x="228" y="73" type="line"/>
      <point x="228" y="0" type="line"/>
    </contour>
    <contour>
      <point x="228" y="293" type="line"/>
      <point x="228" y="169" type="line"/>
      <point x="139" y="169" type="line"/>
    </contour>
  </outline>
</glyph>
<glyph name="five.inferior" format="2">
  <advance width="397"/>
  <unicode hex="2085"/>
  <outline>
    <contour>
      <point x="193" y="-8" type="curve" smooth="yes"/>
      <point x="301" y="-8"/>
      <point x="369" y="49"/>
      <point x="369" y="140" type="curve" smooth="yes"/>
      <point x="369" y="226"/>
      <point x="305" y="272"/>
      <point x="233" y="272" type="curve" smooth="yes"/>
      <point x="202" y="272"/>
      <point x="176" y="263"/>
      <point x="157" y="250" type="curve"/>
      <point x="159" y="308" type="line"/>
      <point x="346" y="308" type="line"/>
      <point x="346" y="412" type="line"/>
      <point x="53" y="412" type="line"/>
      <point x="47" y="182" type="line"/>
      <point x="123" y="154" type="line"/>
      <point x="143" y="169"/>
      <point x="167" y="178"/>
      <point x="195" y="178" type="curve" smooth="yes"/>
      <point x="232" y="178"/>
      <point x="253" y="161"/>
      <point x="253" y="136" type="curve" smooth="yes"/>
      <point x="253" y="113"/>
      <point x="233" y="92"/>
      <point x="193" y="92" type="curve" smooth="yes"/>
      <point x="158" y="92"/>
      <point x="121" y="110"/>
      <point x="91" y="136" type="curve"/>
      <point x="25" y="54" type="line"/>
      <point x="66" y="16"/>
      <point x="121" y="-8"/>
    </contour>
  </outline>
</glyph>
<glyph name="six.inferior" format="2">
  <advance width="406"/>
  <unicode hex="2086"/>
  <outline>
    <contour>
      <point x="215" y="-7" type="curve" smooth="yes"/>
      <point x="308" y="-7"/>
      <point x="382" y="50"/>
      <point x="382" y="140" type="curve" smooth="yes"/>
      <point x="382" y="222"/>
      <point x="319" y="272"/>
      <point x="242" y="272" type="curve" smooth="yes"/>
      <point x="196" y="272"/>
      <point x="148" y="252"/>
      <point x="127" y="223" type="curve"/>
      <point x="139" y="109" type="line"/>
      <point x="141" y="150"/>
      <point x="168" y="179"/>
      <point x="205" y="179" type="curve" smooth="yes"/>
      <point x="235" y="179"/>
      <point x="262" y="163"/>
      <point x="262" y="135" type="curve" smooth="yes"/>
      <point x="262" y="110"/>
      <point x="240" y="91"/>
      <point x="208" y="91" type="curve" smooth="yes"/>
      <point x="157" y="91"/>
      <point x="148" y="121"/>
      <point x="148" y="199" type="curve" smooth="yes"/>
      <point x="148" y="275"/>
      <point x="176" y="318"/>
      <point x="233" y="318" type="curve" smooth="yes"/>
      <point x="265" y="318"/>
      <point x="287" y="308"/>
      <point x="312" y="290" type="curve"/>
      <point x="365" y="378" type="line"/>
      <point x="329" y="404"/>
      <point x="284" y="419"/>
      <point x="232" y="419" type="curve" smooth="yes"/>
      <point x="104" y="419"/>
      <point x="28" y="331"/>
      <point x="28" y="199" type="curve" smooth="yes"/>
      <point x="28" y="76"/>
      <point x="89" y="-7"/>
    </contour>
  </outline>
</glyph>
<glyph name="seven.inferior" format="2">
  <advance width="370"/>
  <unicode hex="2087"/>
  <outline>
    <contour>
      <point x="188" y="0" type="line"/>
      <point x="347" y="325" type="line"/>
      <point x="347" y="412" type="line"/>
      <point x="22" y="412" type="line"/>
      <point x="22" y="308" type="line"/>
      <point x="214" y="308" type="line"/>
      <point x="58" y="0" type="line"/>
    </contour>
  </outline>
</glyph>
<glyph name="eight.inferior" format="2">
  <advance width="405"/>
  <unicode hex="2088"/>
  <outline>
    <contour>
      <point x="202" y="-7" type="curve" smooth="yes"/>
      <point x="297" y="-7"/>
      <point x="378" y="34"/>
      <point x="378" y="112" type="curve" smooth="yes"/>
      <point x="378" y="157"/>
      <point x="351" y="192"/>
      <point x="304" y="213" type="curve"/>
      <point x="344" y="232"/>
      <point x="367" y="262"/>
      <point x="367" y="306" type="curve" smooth="yes"/>
      <point x="367" y="379"/>
      <point x="290" y="419"/>
      <point x="202" y="419" type="curve" smooth="yes"/>
      <point x="116" y="419"/>
      <point x="38" y="380"/>
      <point x="38" y="305" type="curve" smooth="yes"/>
      <point x="38" y="259"/>
      <point x="64" y="230"/>
      <point x="101" y="213" type="curve"/>
      <point x="56" y="194"/>
      <point x="27" y="159"/>
      <point x="27" y="112" type="curve" smooth="yes"/>
      <point x="27" y="34"/>
      <point x="107" y="-7"/>
    </contour>
    <contour>
      <point x="202" y="89" type="curve" smooth="yes"/>
      <point x="167" y="89"/>
      <point x="145" y="104"/>
      <point x="145" y="126" type="curve" smooth="yes"/>
      <point x="145" y="147"/>
      <point x="172" y="161"/>
      <point x="202" y="163" type="curve"/>
      <point x="233" y="161"/>
      <point x="260" y="147"/>
      <point x="260" y="126" type="curve" smooth="yes"/>
      <point x="260" y="104"/>
      <point x="237" y="89"/>
    </contour>
    <contour>
      <point x="202" y="252" type="curve"/>
      <point x="175" y="254"/>
      <point x="152" y="269"/>
      <point x="152" y="289" type="curve" smooth="yes"/>
      <point x="152" y="308"/>
      <point x="171" y="324"/>
      <point x="202" y="324" type="curve" smooth="yes"/>
      <point x="233" y="324"/>
      <point x="253" y="308"/>
      <point x="253" y="289" type="curve" smooth="yes"/>
      <point x="253" y="269"/>
      <point x="230" y="254"/>
    </contour>
  </outline>
</glyph>
<glyph name="nine.inferior" format="2">
  <advance width="406"/>
  <unicode hex="2089"/>
  <outline>
    <contour>
      <point x="191" y="419" type="curve" smooth="yes"/>
      <point x="98" y="419"/>
      <point x="24" y="362"/>
      <point x="24" y="272" type="curve" smooth="yes"/>
      <point x="24" y="190"/>
      <point x="87" y="140"/>
      <point x="164" y="140" type="curve" smooth="yes"/>
      <point x="210" y="140"/>
      <point x="258" y="160"/>
      <point x="279" y="189" type="curve"/>
      <point x="267" y="303" type="line"/>
      <point x="265" y="262"/>
      <point x="238" y="233"/>
      <point x="201" y="233" type="curve" smooth="yes"/>
      <point x="171" y="233"/>
      <point x="144" y="249"/>
      <point x="144" y="277" type="curve" smooth="yes"/>
      <point x="144" y="302"/>
      <point x="166" y="321"/>
      <point x="198" y="321" type="curve" smooth="yes"/>
      <point x="249" y="321"/>
      <point x="258" y="291"/>
      <point x="258" y="213" type="curve" smooth="yes"/>
      <point x="258" y="137"/>
      <point x="230" y="94"/>
      <point x="173" y="94" type="curve" smooth="yes"/>
      <point x="141" y="94"/>
      <point x="119" y="104"/>
      <point x="94" y="122" type="curve"/>
      <point x="41" y="34" type="line"/>
      <point x="77" y="8"/>
      <point x="122" y="-7"/>
      <point x="174" y="-7" type="curve" smooth="yes"/>
      <point x="302" y="-7"/>
      <point x="378" y="81"/>
      <point x="378" y="213" type="curve" smooth="yes"/>
      <point x="378" y="336"/>
      <point x="317" y="419"/>
    </contour>
  </outline>
</glyph>
<glyph name="dong" format="2">
  <advance width="705"/>
  <unicode hex="20AB"/>
  <outline>
    <contour>
      <point x="622" y="-61" type="line"/>
      <point x="27" y="-61" type="line"/>
      <point x="27" y="-159" type="line"/>
      <point x="622" y="-159" type="line"/>
    </contour>
    <contour>
      <point x="623" y="699" type="line"/>
      <point x="430" y="699" type="line"/>
      <point x="430" y="655" type="line"/>
      <point x="290" y="655" type="line"/>
      <point x="290" y="565" type="line"/>
      <point x="430" y="565" type="line"/>
      <point x="430" y="456" type="line"/>
      <point x="387" y="505"/>
      <point x="330" y="529"/>
      <point x="265" y="529" type="curve" smooth="yes"/>
      <point x="110" y="529"/>
      <point x="28" y="403"/>
      <point x="28" y="259" type="curve" smooth="yes"/>
      <point x="28" y="116"/>
      <point x="111" y="-12"/>
      <point x="265" y="-12" type="curve" smooth="yes"/>
      <point x="330" y="-12"/>
      <point x="387" y="12"/>
      <point x="430" y="61" type="curve"/>
      <point x="430" y="0" type="line"/>
      <point x="623" y="0" type="line"/>
      <point x="623" y="565" type="line"/>
      <point x="680" y="565" type="line"/>
      <point x="680" y="655" type="line"/>
      <point x="623" y="655" type="line"/>
    </contour>
    <contour>
      <point x="326" y="148" type="curve" smooth="yes"/>
      <point x="260" y="148"/>
      <point x="212" y="192"/>
      <point x="212" y="259" type="curve" smooth="yes"/>
      <point x="212" y="325"/>
      <point x="261" y="369"/>
      <point x="326" y="369" type="curve" smooth="yes"/>
      <point x="390" y="369"/>
      <point x="430" y="321"/>
      <point x="430" y="259" type="curve" smooth="yes"/>
      <point x="430" y="196"/>
      <point x="391" y="148"/>
    </contour>
  </outline>
</glyph>
<glyph name="Euro" format="2">
  <advance width="801"/>
  <unicode hex="20AC"/>
  <anchor x="470" y="0" name="bottom"/>
  <anchor x="470" y="687" name="top"/>
  <outline>
    <contour>
      <point x="527" y="247" type="line"/>
      <point x="527" y="324" type="line"/>
      <point x="61" y="324" type="line"/>
      <point x="61" y="247" type="line"/>
    </contour>
    <contour>
      <point x="527" y="372" type="line"/>
      <point x="527" y="449" type="line"/>
      <point x="61" y="449" type="line"/>
      <point x="61" y="372" type="line"/>
    </contour>
    <contour>
      <point x="470" y="-12" type="curve" smooth="yes"/>
      <point x="580" y="-12"/>
      <point x="680" y="35"/>
      <point x="749" y="110" type="curve"/>
      <point x="607" y="234" type="line"/>
      <point x="574" y="192"/>
      <point x="525" y="164"/>
      <point x="470" y="164" type="curve" smooth="yes"/>
      <point x="376" y="164"/>
      <point x="296" y="246"/>
      <point x="296" y="344" type="curve" smooth="yes"/>
      <point x="296" y="441"/>
      <point x="376" y="523"/>
      <point x="470" y="523" type="curve" smooth="yes"/>
      <point x="524" y="523"/>
      <point x="574" y="495"/>
      <point x="606" y="453" type="curve"/>
      <point x="749" y="578" type="line"/>
      <point x="680" y="652"/>
      <point x="580" y="699"/>
      <point x="470" y="699" type="curve" smooth="yes"/>
      <point x="267" y="699"/>
      <point x="96" y="537"/>
      <point x="96" y="344" type="curve" smooth="yes"/>
      <point x="96" y="151"/>
      <point x="267" y="-12"/>
    </contour>
  </outline>
</glyph>
<glyph name="arrowleft" format="2">
  <advance width="938"/>
  <unicode hex="2190"/>
  <outline>
    <contour>
      <point x="576" y="34" type="line"/>
      <point x="505" y="105"/>
      <point x="435" y="180"/>
      <point x="359" y="247" type="curve"/>
      <point x="388" y="245"/>
      <point x="416" y="245"/>
      <point x="445" y="244" type="curve"/>
      <point x="821" y="245" type="line"/>
      <point x="821" y="392" type="line"/>
      <point x="445" y="392" type="line" smooth="yes"/>
      <point x="417" y="392"/>
      <point x="388" y="391"/>
      <point x="360" y="390" type="curve"/>
      <point x="436" y="457"/>
      <point x="505" y="530"/>
      <point x="576" y="602" type="curve"/>
      <point x="475" y="703" type="line"/>
      <point x="91" y="318" type="line"/>
      <point x="475" y="-66" type="line"/>
    </contour>
  </outline>
</glyph>
<glyph name="arrowdown" format="2">
  <advance width="950"/>
  <unicode hex="2193"/>
  <outline>
    <contour>
      <point x="759" y="474" type="line"/>
      <point x="687" y="402"/>
      <point x="613" y="332"/>
      <point x="546" y="256" type="curve"/>
      <point x="548" y="285"/>
      <point x="547" y="314"/>
      <point x="548" y="343" type="curve"/>
      <point x="548" y="728" type="line"/>
      <point x="401" y="728" type="line"/>
      <point x="401" y="343" type="line" smooth="yes"/>
      <point x="401" y="315"/>
      <point x="402" y="286"/>
      <point x="403" y="258" type="curve"/>
      <point x="336" y="334"/>
      <point x="262" y="403"/>
      <point x="190" y="474" type="curve"/>
      <point x="91" y="373" type="line"/>
      <point x="475" y="-12" type="line"/>
      <point x="859" y="373" type="line"/>
    </contour>
  </outline>
</glyph>
<glyph name="arrowboth" format="2">
  <advance width="1325"/>
  <unicode hex="2194"/>
  <outline>
    <contour>
      <point x="544" y="67" type="line"/>
      <point x="483" y="128"/>
      <point x="425" y="190"/>
      <point x="360" y="247" type="curve"/>
      <point x="388" y="246"/>
      <point x="417" y="245"/>
      <point x="445" y="245" type="curve" smooth="yes"/>
      <point x="880" y="245" type="line" smooth="yes"/>
      <point x="908" y="245"/>
      <point x="937" y="246"/>
      <point x="965" y="247" type="curve"/>
      <point x="900" y="190"/>
      <point x="842" y="128"/>
      <point x="781" y="67" type="curve"/>
      <point x="882" y="-33" type="line"/>
      <point x="1234" y="318" type="line"/>
      <point x="882" y="670" type="line"/>
      <point x="781" y="570" type="line"/>
      <point x="842" y="509"/>
      <point x="900" y="447"/>
      <point x="965" y="390" type="curve"/>
      <point x="937" y="391"/>
      <point x="908" y="392"/>
      <point x="880" y="392" type="curve" smooth="yes"/>
      <point x="445" y="392" type="line" smooth="yes"/>
      <point x="417" y="392"/>
      <point x="388" y="391"/>
      <point x="360" y="390" type="curve"/>
      <point x="425" y="447"/>
      <point x="483" y="508"/>
      <point x="544" y="570" type="curve"/>
      <point x="443" y="670" type="line"/>
      <point x="91" y="318" type="line"/>
      <point x="443" y="-33" type="line"/>
    </contour>
  </outline>
</glyph>
<glyph name="arrowNW" format="2">
  <advance width="707"/>
  <unicode hex="2196"/>
  <outline>
    <contour>
      <point x="244" y="0" type="line"/>
      <point x="244" y="189" type="line" smooth="yes"/>
      <point x="244" y="216"/>
      <point x="242" y="243"/>
      <point x="241" y="270" type="curve"/>
      <point x="258" y="253"/>
      <point x="274" y="235"/>
      <point x="291" y="218" type="curve"/>
      <point x="521" y="-12" type="line"/>
      <point x="625" y="93" type="line"/>
      <point x="396" y="322" type="line"/>
      <point x="379" y="339"/>
      <point x="361" y="356"/>
      <point x="343" y="372" type="curve"/>
      <point x="370" y="371"/>
      <point x="396" y="369"/>
      <point x="423" y="369" type="curve" smooth="yes"/>
      <point x="613" y="369" type="line"/>
      <point x="613" y="516" type="line"/>
      <point x="98" y="516" type="line"/>
      <point x="98" y="0" type="line"/>
    </contour>
  </outline>
</glyph>
<glyph name="arrowSE" format="2">
  <advance width="707"/>
  <unicode hex="2198"/>
  <outline>
    <contour>
      <point x="463" y="516" type="line"/>
      <point x="463" y="326" type="line" smooth="yes"/>
      <point x="463" y="299"/>
      <point x="465" y="273"/>
      <point x="466" y="246" type="curve"/>
      <point x="449" y="266"/>
      <point x="431" y="285"/>
      <point x="412" y="303" type="curve" smooth="yes"/>
      <point x="187" y="527" type="line"/>
      <point x="83" y="423" type="line"/>
      <point x="317" y="189" type="line"/>
      <point x="333" y="174"/>
      <point x="349" y="159"/>
      <point x="365" y="144" type="curve"/>
      <point x="335" y="145"/>
      <point x="304" y="146"/>
      <point x="274" y="146" type="curve"/>
      <point x="94" y="146" type="line"/>
      <point x="94" y="0" type="line"/>
      <point x="610" y="0" type="line"/>
      <point x="610" y="516" type="line"/>
    </contour>
  </outline>
</glyph>
<glyph name="arrowSW" format="2">
  <advance width="707"/>
  <unicode hex="2199"/>
  <outline>
    <contour>
      <point x="98" y="0" type="line"/>
      <point x="613" y="0" type="line"/>
      <point x="613" y="146" type="line"/>
      <point x="423" y="146" type="line" smooth="yes"/>
      <point x="396" y="146"/>
      <point x="370" y="145"/>
      <point x="343" y="144" type="curve"/>
      <point x="375" y="173"/>
      <point x="406" y="203"/>
      <point x="437" y="234" type="curve"/>
      <point x="625" y="423" type="line"/>
      <point x="521" y="527" type="line"/>
      <point x="332" y="341" type="line"/>
      <point x="301" y="310"/>
      <point x="271" y="278"/>
      <point x="241" y="246" type="curve"/>
      <point x="244" y="273"/>
      <point x="244" y="299"/>
      <point x="244" y="326" type="curve" smooth="yes"/>
      <point x="244" y="516" type="line"/>
      <point x="98" y="516" type="line"/>
    </contour>
  </outline>
</glyph>
<glyph name="arrowrighthook" format="2">
  <advance width="1155"/>
  <unicode hex="21AA"/>
  <outline>
    <contour>
      <point x="1064" y="318" type="line"/>
      <point x="680" y="702" type="line"/>
      <point x="579" y="603" type="line"/>
      <point x="650" y="531"/>
      <point x="721" y="459"/>
      <point x="795" y="390" type="curve"/>
      <point x="767" y="392"/>
      <point x="738" y="392"/>
      <point x="710" y="393" type="curve"/>
      <point x="345" y="392" type="line"/>
      <point x="284" y="392"/>
      <point x="235" y="434"/>
      <point x="235" y="497" type="curve" smooth="yes"/>
      <point x="235" y="559"/>
      <point x="284" y="603"/>
      <point x="345" y="603" type="curve" smooth="yes"/>
      <point x="395" y="603" type="line"/>
      <point x="395" y="750" type="line"/>
      <point x="341" y="750" type="line" smooth="yes"/>
      <point x="197" y="750"/>
      <point x="76" y="645"/>
      <point x="76" y="497" type="curve" smooth="yes"/>
      <point x="76" y="349"/>
      <point x="197" y="245"/>
      <point x="341" y="245" type="curve" smooth="yes"/>
      <point x="710" y="245" type="line" smooth="yes"/>
      <point x="739" y="245"/>
      <point x="767" y="246"/>
      <point x="796" y="247" type="curve"/>
      <point x="722" y="178"/>
      <point x="651" y="106"/>
      <point x="579" y="34" type="curve"/>
      <point x="680" y="-66" type="line"/>
    </contour>
  </outline>
</glyph>
<glyph name="arrowrightdowncorner" format="2">
  <advance width="932"/>
  <unicode hex="21B4"/>
  <outline>
    <contour>
      <point x="842" y="257" type="line"/>
      <point x="655" y="257" type="line"/>
      <point x="655" y="728" type="line"/>
      <point x="92" y="728" type="line"/>
      <point x="92" y="582" type="line"/>
      <point x="507" y="582" type="line"/>
      <point x="507" y="257" type="line"/>
      <point x="320" y="257" type="line"/>
      <point x="581" y="-12" type="line"/>
    </contour>
  </outline>
</glyph>
<glyph name="carriagereturn" format="2">
  <advance width="1016"/>
  <unicode hex="21B5"/>
  <outline>
    <contour>
      <point x="358" y="244" type="line"/>
      <point x="926" y="244" type="line"/>
      <point x="926" y="728" type="line"/>
      <point x="780" y="728" type="line"/>
      <point x="780" y="392" type="line"/>
      <point x="358" y="392" type="line"/>
      <point x="358" y="579" type="line"/>
      <point x="91" y="318" type="line"/>
      <point x="358" y="58" type="line"/>
    </contour>
  </outline>
</glyph>
<glyph name="arrowdblright" format="2">
  <advance width="938"/>
  <unicode hex="21D2"/>
  <outline>
    <contour>
      <point x="848" y="318" type="line"/>
      <point x="464" y="702" type="line"/>
      <point x="363" y="603" type="line"/>
      <point x="475" y="491" type="line"/>
      <point x="117" y="491" type="line"/>
      <point x="117" y="351" type="line"/>
      <point x="615" y="351" type="line"/>
      <point x="647" y="318" type="line"/>
      <point x="614" y="285" type="line"/>
      <point x="117" y="285" type="line"/>
      <point x="117" y="145" type="line"/>
      <point x="474" y="145" type="line"/>
      <point x="363" y="34" type="line"/>
      <point x="464" y="-66" type="line"/>
    </contour>
  </outline>
</glyph>
<glyph name="arrowrighttobar" format="2">
  <advance width="1063"/>
  <unicode hex="21E5"/>
  <outline>
    <contour>
      <point x="765" y="363" type="line"/>
      <point x="496" y="624" type="line"/>
      <point x="496" y="438" type="line"/>
      <point x="83" y="438" type="line"/>
      <point x="83" y="290" type="line"/>
      <point x="496" y="290" type="line"/>
      <point x="496" y="103" type="line"/>
    </contour>
    <contour>
      <point x="980" y="104" type="line"/>
      <point x="980" y="624" type="line"/>
      <point x="836" y="624" type="line"/>
      <point x="836" y="104" type="line"/>
    </contour>
  </outline>
</glyph>
<glyph name="Euro.tf" format="2">
  <advance width="700"/>
  <anchor x="419" y="-0" name="bottom"/>
  <anchor x="419" y="687" name="top"/>
  <outline>
    <contour>
      <point x="476" y="247" type="line"/>
      <point x="476" y="324" type="line"/>
      <point x="10" y="324" type="line"/>
      <point x="10" y="247" type="line"/>
    </contour>
    <contour>
      <point x="476" y="372" type="line"/>
      <point x="476" y="449" type="line"/>
      <point x="10" y="449" type="line"/>
      <point x="10" y="372" type="line"/>
    </contour>
    <contour>
      <point x="419" y="-12" type="curve" smooth="yes"/>
      <point x="529" y="-12"/>
      <point x="629" y="35"/>
      <point x="698" y="110" type="curve"/>
      <point x="556" y="234" type="line"/>
      <point x="523" y="192"/>
      <point x="474" y="164"/>
      <point x="419" y="164" type="curve" smooth="yes"/>
      <point x="325" y="164"/>
      <point x="245" y="246"/>
      <point x="245" y="344" type="curve" smooth="yes"/>
      <point x="245" y="441"/>
      <point x="325" y="523"/>
      <point x="419" y="523" type="curve" smooth="yes"/>
      <point x="473" y="523"/>
      <point x="523" y="495"/>
      <point x="555" y="453" type="curve"/>
      <point x="698" y="578" type="line"/>
      <point x="629" y="652"/>
      <point x="529" y="699"/>
      <point x="419" y="699" type="curve" smooth="yes"/>
      <point x="216" y="699"/>
      <point x="45" y="537"/>
      <point x="45" y="344" type="curve" smooth="yes"/>
      <point x="45" y="151"/>
      <point x="216" y="-12"/>
    </contour>
  </outline>
</glyph>
<glyph name="breveacute.case" format="2">
  <advance width="749"/>
  <outline>
    <contour>
      <point x="576" y="963.9" type="line"/>
      <point x="410" y="983.5" type="line"/>
      <point x="298" y="868.7" type="line"/>
      <point x="424" y="868.7" type="line"/>
    </contour>
    <contour>
      <point x="472" y="847" type="line"/>
      <point x="446" y="828.8"/>
      <point x="413" y="816.9"/>
      <point x="375" y="816.9" type="curve" smooth="yes"/>
      <point x="337" y="816.9"/>
      <point x="304" y="828.8"/>
      <point x="278" y="847" type="curve"/>
      <point x="204" y="795.2" type="line"/>
      <point x="251" y="763"/>
      <point x="309" y="745.5"/>
      <point x="375" y="745.5" type="curve" smooth="yes"/>
      <point x="441" y="745.5"/>
      <point x="499" y="762.3"/>
      <point x="546" y="795.2" type="curve"/>
    </contour>
  </outline>
</glyph>
<glyph name="breveacute" format="2">
  <advance width="587"/>
  <outline>
    <contour>
      <point x="506" y="887" type="line"/>
      <point x="340" y="915" type="line"/>
      <point x="228" y="751" type="line"/>
      <point x="354" y="751" type="line"/>
    </contour>
    <contour>
      <point x="402" y="720" type="line"/>
      <point x="376" y="694"/>
      <point x="343" y="677"/>
      <point x="305" y="677" type="curve" smooth="yes"/>
      <point x="267" y="677"/>
      <point x="234" y="694"/>
      <point x="208" y="720" type="curve"/>
      <point x="134" y="646" type="line"/>
      <point x="181" y="600"/>
      <point x="239" y="575"/>
      <point x="305" y="575" type="curve" smooth="yes"/>
      <point x="371" y="575"/>
      <point x="429" y="599"/>
      <point x="476" y="646" type="curve"/>
    </contour>
  </outline>
</glyph>
<glyph name="brevegrave.case" format="2">
  <advance width="749"/>
  <outline>
    <contour>
      <point x="174" y="963.9" type="line"/>
      <point x="326" y="868.7" type="line"/>
      <point x="452" y="868.7" type="line"/>
      <point x="340" y="983.5" type="line"/>
    </contour>
    <contour>
      <point x="472" y="847" type="line"/>
      <point x="446" y="828.8"/>
      <point x="413" y="816.9"/>
      <point x="375" y="816.9" type="curve" smooth="yes"/>
      <point x="337" y="816.9"/>
      <point x="304" y="828.8"/>
      <point x="278" y="847" type="curve"/>
      <point x="204" y="795.2" type="line"/>
      <point x="251" y="763"/>
      <point x="309" y="745.5"/>
      <point x="375" y="745.5" type="curve" smooth="yes"/>
      <point x="441" y="745.5"/>
      <point x="499" y="762.3"/>
      <point x="546" y="795.2" type="curve"/>
    </contour>
  </outline>
</glyph>
<glyph name="brevegrave" format="2">
  <advance width="587"/>
  <outline>
    <contour>
      <point x="104" y="887" type="line"/>
      <point x="256" y="751" type="line"/>
      <point x="382" y="751" type="line"/>
      <point x="270" y="915" type="line"/>
    </contour>
    <contour>
      <point x="402" y="720" type="line"/>
      <point x="376" y="694"/>
      <point x="343" y="677"/>
      <point x="305" y="677" type="curve" smooth="yes"/>
      <point x="267" y="677"/>
      <point x="234" y="694"/>
      <point x="208" y="720" type="curve"/>
      <point x="134" y="646" type="line"/>
      <point x="181" y="600"/>
      <point x="239" y="575"/>
      <point x="305" y="575" type="curve" smooth="yes"/>
      <point x="371" y="575"/>
      <point x="429" y="599"/>
      <point x="476" y="646" type="curve"/>
    </contour>
  </outline>
</glyph>
<glyph name="brevehoi.case" format="2">
  <advance width="749"/>
  <outline>
    <contour>
      <point x="391" y="907" type="curve" smooth="yes"/>
      <point x="391" y="891"/>
      <point x="341" y="876"/>
      <point x="321" y="872" type="curve"/>
      <point x="321" y="843" type="line"/>
      <point x="414" y="843" type="line"/>
      <point x="414" y="849" type="line"/>
      <point x="467" y="860"/>
      <point x="522" y="881"/>
      <point x="522" y="924" type="curve" smooth="yes"/>
      <point x="522" y="975"/>
      <point x="448" y="984"/>
      <point x="390" y="984" type="curve" smooth="yes"/>
      <point x="347" y="984"/>
      <point x="304" y="978"/>
      <point x="263" y="968" type="curve"/>
      <point x="270" y="902" type="line"/>
      <point x="297" y="911"/>
      <point x="329" y="918"/>
      <point x="359" y="918" type="curve" smooth="yes"/>
      <point x="370" y="918"/>
      <point x="391" y="918"/>
    </contour>
    <contour>
      <point x="472" y="847" type="line"/>
      <point x="446" y="829"/>
      <point x="413" y="817"/>
      <point x="375" y="817" type="curve" smooth="yes"/>
      <point x="337" y="817"/>
      <point x="304" y="829"/>
      <point x="278" y="847" type="curve"/>
      <point x="204" y="795" type="line"/>
      <point x="251" y="763"/>
      <point x="309" y="746"/>
      <point x="375" y="746" type="curve" smooth="yes"/>
      <point x="441" y="746"/>
      <point x="499" y="762"/>
      <point x="546" y="795" type="curve"/>
    </contour>
  </outline>
</glyph>
<glyph name="brevehoi" format="2">
  <advance width="587"/>
  <outline>
    <contour>
      <point x="321" y="806" type="curve" smooth="yes"/>
      <point x="321" y="783"/>
      <point x="271" y="762"/>
      <point x="251" y="756" type="curve"/>
      <point x="251" y="714" type="line"/>
      <point x="344" y="714" type="line"/>
      <point x="344" y="723" type="line"/>
      <point x="397" y="738"/>
      <point x="452" y="768"/>
      <point x="452" y="830" type="curve" smooth="yes"/>
      <point x="452" y="903"/>
      <point x="378" y="915"/>
      <point x="320" y="915" type="curve" smooth="yes"/>
      <point x="277" y="915"/>
      <point x="234" y="907"/>
      <point x="193" y="893" type="curve"/>
      <point x="200" y="799" type="line"/>
      <point x="227" y="811"/>
      <point x="259" y="822"/>
      <point x="289" y="822" type="curve" smooth="yes"/>
      <point x="300" y="822"/>
      <point x="321" y="821"/>
    </contour>
    <contour>
      <point x="402" y="720" type="line"/>
      <point x="376" y="694"/>
      <point x="343" y="677"/>
      <point x="305" y="677" type="curve" smooth="yes"/>
      <point x="267" y="677"/>
      <point x="234" y="694"/>
      <point x="208" y="720" type="curve"/>
      <point x="134" y="646" type="line"/>
      <point x="181" y="600"/>
      <point x="239" y="575"/>
      <point x="305" y="575" type="curve" smooth="yes"/>
      <point x="371" y="575"/>
      <point x="429" y="599"/>
      <point x="476" y="646" type="curve"/>
    </contour>
  </outline>
</glyph>
<glyph name="brevetilde.case" format="2">
  <advance width="749"/>
  <outline>
    <contour>
      <point x="311" y="900" type="curve" smooth="yes"/>
      <point x="335" y="900"/>
      <point x="398" y="872"/>
      <point x="444" y="872" type="curve" smooth="yes"/>
      <point x="528" y="872"/>
      <point x="557" y="918"/>
      <point x="565" y="970" type="curve"/>
      <point x="475" y="980" type="line"/>
      <point x="471" y="966"/>
      <point x="462" y="951"/>
      <point x="438" y="951" type="curve" smooth="yes"/>
      <point x="414" y="951"/>
      <point x="351" y="979"/>
      <point x="305" y="979" type="curve" smooth="yes"/>
      <point x="221" y="979"/>
      <point x="192" y="932"/>
      <point x="184" y="881" type="curve"/>
      <point x="274" y="871" type="line"/>
      <point x="278" y="885"/>
      <point x="287" y="900"/>
    </contour>
    <contour>
      <point x="472" y="847" type="line"/>
      <point x="446" y="829"/>
      <point x="413" y="817"/>
      <point x="375" y="817" type="curve" smooth="yes"/>
      <point x="337" y="817"/>
      <point x="304" y="829"/>
      <point x="278" y="847" type="curve"/>
      <point x="204" y="795" type="line"/>
      <point x="251" y="763"/>
      <point x="309" y="746"/>
      <point x="375" y="746" type="curve" smooth="yes"/>
      <point x="441" y="746"/>
      <point x="499" y="762"/>
      <point x="546" y="795" type="curve"/>
    </contour>
  </outline>
</glyph>
<glyph name="brevetilde" format="2">
  <advance width="587"/>
  <outline>
    <contour>
      <point x="241" y="796" type="curve" smooth="yes"/>
      <point x="265" y="796"/>
      <point x="328" y="756"/>
      <point x="374" y="756" type="curve" smooth="yes"/>
      <point x="458" y="756"/>
      <point x="487" y="822"/>
      <point x="495" y="896" type="curve"/>
      <point x="405" y="910" type="line"/>
      <point x="401" y="890"/>
      <point x="392" y="868"/>
      <point x="368" y="868" type="curve" smooth="yes"/>
      <point x="344" y="868"/>
      <point x="281" y="908"/>
      <point x="235" y="908" type="curve" smooth="yes"/>
      <point x="151" y="908"/>
      <point x="122" y="842"/>
      <point x="114" y="768" type="curve"/>
      <point x="204" y="754" type="line"/>
      <point x="208" y="774"/>
      <point x="217" y="796"/>
    </contour>
    <contour>
      <point x="402" y="720" type="line"/>
      <point x="376" y="694"/>
      <point x="343" y="677"/>
      <point x="305" y="677" type="curve" smooth="yes"/>
      <point x="267" y="677"/>
      <point x="234" y="694"/>
      <point x="208" y="720" type="curve"/>
      <point x="134" y="646" type="line"/>
      <point x="181" y="600"/>
      <point x="239" y="575"/>
      <point x="305" y="575" type="curve" smooth="yes"/>
      <point x="371" y="575"/>
      <point x="429" y="599"/>
      <point x="476" y="646" type="curve"/>
    </contour>
  </outline>
</glyph>
<glyph name="cent.tf.rvrn" format="2">
  <advance width="700"/>
  <anchor x="380" y="-0" name="bottom"/>
  <anchor x="370" y="517" name="top"/>
  <outline>
    <contour>
      <point x="444" y="-74" type="line"/>
      <point x="444" y="43" type="line"/>
      <point x="334" y="43" type="line"/>
      <point x="334" y="-74" type="line"/>
    </contour>
    <contour>
      <point x="444" y="473" type="line"/>
      <point x="444" y="589" type="line"/>
      <point x="334" y="589" type="line"/>
      <point x="334" y="473" type="line"/>
    </contour>
    <contour>
      <point x="389" y="-12" type="curve" smooth="yes"/>
      <point x="485" y="-12"/>
      <point x="558" y="27"/>
      <point x="610" y="87" type="curve"/>
      <point x="483" y="189" type="line"/>
      <point x="462" y="165"/>
      <point x="424" y="148"/>
      <point x="391" y="148" type="curve" smooth="yes"/>
      <point x="332" y="148"/>
      <point x="283" y="199"/>
      <point x="283" y="260" type="curve" smooth="yes"/>
      <point x="283" y="319"/>
      <point x="332" y="369"/>
      <point x="390" y="369" type="curve" smooth="yes"/>
      <point x="423" y="369"/>
      <point x="460" y="352"/>
      <point x="480" y="329" type="curve"/>
      <point x="607" y="433" type="line"/>
      <point x="557" y="491"/>
      <point x="484" y="529"/>
      <point x="392" y="529" type="curve" smooth="yes"/>
      <point x="233" y="529"/>
      <point x="99" y="406"/>
      <point x="99" y="259" type="curve" smooth="yes"/>
      <point x="99" y="112"/>
      <point x="232" y="-12"/>
    </contour>
  </outline>
</glyph>
<glyph name="circumflexgrave.case" format="2">
  <advance width="749"/>
  <outline>
    <contour>
      <point x="369" y="947" type="line"/>
      <point x="521" y="852" type="line"/>
      <point x="647" y="852" type="line"/>
      <point x="535" y="966" type="line"/>
    </contour>
    <contour>
      <point x="562" y="744" type="line"/>
      <point x="453" y="852" type="line"/>
      <point x="298" y="852" type="line"/>
      <point x="190" y="744" type="line"/>
      <point x="302" y="744" type="line"/>
      <point x="375" y="791" type="line"/>
      <point x="449" y="744" type="line"/>
    </contour>
  </outline>
</glyph>
<glyph name="circumflexgrave" format="2">
  <advance width="587"/>
  <outline>
    <contour>
      <point x="299" y="864" type="line"/>
      <point x="451" y="728" type="line"/>
      <point x="577" y="728" type="line"/>
      <point x="465" y="892" type="line"/>
    </contour>
    <contour>
      <point x="492" y="574" type="line"/>
      <point x="383" y="728" type="line"/>
      <point x="228" y="728" type="line"/>
      <point x="120" y="574" type="line"/>
      <point x="232" y="574" type="line"/>
      <point x="305" y="641" type="line"/>
      <point x="379" y="574" type="line"/>
    </contour>
  </outline>
</glyph>
<glyph name="circumflexhoi.case" format="2">
  <advance width="749"/>
  <outline>
    <contour>
      <point x="470" y="885.2" type="line"/>
      <point x="497" y="893.6"/>
      <point x="529" y="901.3"/>
      <point x="559" y="901.3" type="curve" smooth="yes"/>
      <point x="570" y="901.3"/>
      <point x="591" y="900.6"/>
      <point x="591" y="890.1" type="curve" smooth="yes"/>
      <point x="591" y="874"/>
      <point x="541" y="859.3"/>
      <point x="521" y="855.1" type="curve"/>
      <point x="521" y="825.7" type="line"/>
      <point x="614" y="825.7" type="line"/>
      <point x="614" y="832" type="line"/>
      <point x="667" y="842.5"/>
      <point x="722" y="863.5"/>
      <point x="722" y="906.9" type="curve" smooth="yes"/>
      <point x="722" y="958"/>
      <point x="648" y="966.4"/>
      <point x="590" y="966.4" type="curve" smooth="yes"/>
      <point x="547" y="966.4"/>
      <point x="504" y="960.8"/>
      <point x="463" y="951" type="curve"/>
    </contour>
    <contour>
      <point x="190" y="743.8" type="line"/>
      <point x="302" y="743.8" type="line"/>
      <point x="375" y="790.7" type="line"/>
      <point x="449" y="743.8" type="line"/>
      <point x="562" y="743.8" type="line"/>
      <point x="453" y="851.6" type="line"/>
      <point x="298" y="851.6" type="line"/>
    </contour>
  </outline>
</glyph>
<glyph name="circumflexhoi" format="2">
  <advance width="587"/>
  <outline>
    <contour>
      <point x="451" y="691" type="line"/>
      <point x="544" y="691" type="line"/>
      <point x="544" y="700" type="line"/>
      <point x="597" y="715"/>
      <point x="652" y="745"/>
      <point x="652" y="807" type="curve" smooth="yes"/>
      <point x="652" y="880"/>
      <point x="578" y="892"/>
      <point x="520" y="892" type="curve" smooth="yes"/>
      <point x="477" y="892"/>
      <point x="434" y="884"/>
      <point x="393" y="870" type="curve"/>
      <point x="400" y="776" type="line"/>
      <point x="427" y="788"/>
      <point x="459" y="799"/>
      <point x="489" y="799" type="curve" smooth="yes"/>
      <point x="500" y="799"/>
      <point x="521" y="798"/>
      <point x="521" y="783" type="curve" smooth="yes"/>
      <point x="521" y="760"/>
      <point x="471" y="739"/>
      <point x="451" y="733" type="curve"/>
    </contour>
    <contour>
      <point x="120" y="574" type="line"/>
      <point x="232" y="574" type="line"/>
      <point x="305" y="641" type="line"/>
      <point x="379" y="574" type="line"/>
      <point x="492" y="574" type="line"/>
      <point x="383" y="728" type="line"/>
      <point x="228" y="728" type="line"/>
    </contour>
  </outline>
</glyph>
<glyph name="circumflextilde.case" format="2">
  <advance width="749"/>
  <outline>
    <contour>
      <point x="311" y="899.2" type="curve" smooth="yes"/>
      <point x="335" y="899.2"/>
      <point x="398" y="871.2"/>
      <point x="444" y="871.2" type="curve" smooth="yes"/>
      <point x="528" y="871.2"/>
      <point x="557" y="917.4"/>
      <point x="565" y="969.2" type="curve"/>
      <point x="475" y="979" type="line"/>
      <point x="471" y="965"/>
      <point x="462" y="949.6"/>
      <point x="438" y="949.6" type="curve" smooth="yes"/>
      <point x="414" y="949.6"/>
      <point x="351" y="977.6"/>
      <point x="305" y="977.6" type="curve" smooth="yes"/>
      <point x="221" y="977.6"/>
      <point x="192" y="931.4"/>
      <point x="184" y="879.6" type="curve"/>
      <point x="274" y="869.8" type="line"/>
      <point x="278" y="883.8"/>
      <point x="287" y="899.2"/>
    </contour>
    <contour>
      <point x="562" y="743.8" type="line"/>
      <point x="453" y="851.6" type="line"/>
      <point x="298" y="851.6" type="line"/>
      <point x="190" y="743.8" type="line"/>
      <point x="302" y="743.8" type="line"/>
      <point x="375" y="790.7" type="line"/>
      <point x="449" y="743.8" type="line"/>
    </contour>
  </outline>
</glyph>
<glyph name="circumflextilde" format="2">
  <advance width="587"/>
  <outline>
    <contour>
      <point x="241" y="796" type="curve" smooth="yes"/>
      <point x="265" y="796"/>
      <point x="328" y="756"/>
      <point x="374" y="756" type="curve" smooth="yes"/>
      <point x="458" y="756"/>
      <point x="487" y="822"/>
      <point x="495" y="896" type="curve"/>
      <point x="405" y="910" type="line"/>
      <point x="401" y="890"/>
      <point x="392" y="868"/>
      <point x="368" y="868" type="curve" smooth="yes"/>
      <point x="344" y="868"/>
      <point x="281" y="908"/>
      <point x="235" y="908" type="curve" smooth="yes"/>
      <point x="151" y="908"/>
      <point x="122" y="842"/>
      <point x="114" y="768" type="curve"/>
      <point x="204" y="754" type="line"/>
      <point x="208" y="774"/>
      <point x="217" y="796"/>
    </contour>
    <contour>
      <point x="492" y="574" type="line"/>
      <point x="383" y="728" type="line"/>
      <point x="228" y="728" type="line"/>
      <point x="120" y="574" type="line"/>
      <point x="232" y="574" type="line"/>
      <point x="305" y="641" type="line"/>
      <point x="379" y="574" type="line"/>
    </contour>
  </outline>
</glyph>
<glyph name="colon.tf" format="2">
  <advance width="315"/>
  <outline>
    <contour>
      <point x="160" y="313" type="curve" smooth="yes"/>
      <point x="222" y="313"/>
      <point x="273" y="366"/>
      <point x="273" y="431" type="curve" smooth="yes"/>
      <point x="273" y="491"/>
      <point x="222" y="544"/>
      <point x="160" y="544" type="curve" smooth="yes"/>
      <point x="93" y="544"/>
      <point x="42" y="491"/>
      <point x="42" y="431" type="curve" smooth="yes"/>
      <point x="42" y="366"/>
      <point x="93" y="313"/>
    </contour>
    <contour>
      <point x="160" y="-12" type="curve" smooth="yes"/>
      <point x="222" y="-12"/>
      <point x="273" y="41"/>
      <point x="273" y="106" type="curve" smooth="yes"/>
      <point x="273" y="166"/>
      <point x="222" y="219"/>
      <point x="160" y="219" type="curve" smooth="yes"/>
      <point x="93" y="219"/>
      <point x="42" y="166"/>
      <point x="42" y="106" type="curve" smooth="yes"/>
      <point x="42" y="41"/>
      <point x="93" y="-12"/>
    </contour>
  </outline>
</glyph>
<glyph name="divide.tf" format="2">
  <advance width="700"/>
  <outline>
    <contour>
      <point x="599" y="260" type="line"/>
      <point x="599" y="409" type="line"/>
      <point x="100" y="409" type="line"/>
      <point x="100" y="260" type="line"/>
    </contour>
    <contour>
      <point x="352" y="30" type="curve" smooth="yes"/>
      <point x="405" y="30"/>
      <point x="448" y="75"/>
      <point x="448" y="130" type="curve" smooth="yes"/>
      <point x="448" y="181"/>
      <point x="405" y="226"/>
      <point x="352" y="226" type="curve" smooth="yes"/>
      <point x="296" y="226"/>
      <point x="252" y="181"/>
      <point x="252" y="130" type="curve" smooth="yes"/>
      <point x="252" y="75"/>
      <point x="296" y="30"/>
    </contour>
    <contour>
      <point x="352" y="442" type="curve" smooth="yes"/>
      <point x="405" y="442"/>
      <point x="448" y="487"/>
      <point x="448" y="542" type="curve" smooth="yes"/>
      <point x="448" y="593"/>
      <point x="405" y="638"/>
      <point x="352" y="638" type="curve" smooth="yes"/>
      <point x="296" y="638"/>
      <point x="252" y="593"/>
      <point x="252" y="542" type="curve" smooth="yes"/>
      <point x="252" y="487"/>
      <point x="296" y="442"/>
    </contour>
  </outline>
</glyph>
<glyph name="dollar.tf" format="2">
  <advance width="700"/>
  <anchor x="349" y="0" name="bottom"/>
  <anchor x="349" y="687" name="top"/>
  <outline>
    <contour>
      <point x="423" y="-74" type="line"/>
      <point x="423" y="759" type="line"/>
      <point x="313" y="759" type="line"/>
      <point x="313" y="-74" type="line"/>
    </contour>
    <contour>
      <point x="369" y="-12" type="curve" smooth="yes"/>
      <point x="541" y="-12"/>
      <point x="652" y="73"/>
      <point x="652" y="218" type="curve" smooth="yes"/>
      <point x="652" y="349"/>
      <point x="552" y="392"/>
      <point x="392" y="426" type="curve" smooth="yes"/>
      <point x="294" y="447"/>
      <point x="270" y="458"/>
      <point x="270" y="493" type="curve" smooth="yes"/>
      <point x="270" y="519"/>
      <point x="293" y="538"/>
      <point x="340" y="538" type="curve" smooth="yes"/>
      <point x="402" y="538"/>
      <point x="472" y="515"/>
      <point x="536" y="469" type="curve"/>
      <point x="633" y="606" type="line"/>
      <point x="557" y="667"/>
      <point x="464" y="699"/>
      <point x="345" y="699" type="curve" smooth="yes"/>
      <point x="182" y="699"/>
      <point x="74" y="610"/>
      <point x="74" y="473" type="curve" smooth="yes"/>
      <point x="74" y="330"/>
      <point x="189" y="291"/>
      <point x="338" y="257" type="curve" smooth="yes"/>
      <point x="433" y="235"/>
      <point x="457" y="230"/>
      <point x="457" y="197" type="curve" smooth="yes"/>
      <point x="457" y="167"/>
      <point x="429" y="149"/>
      <point x="376" y="149" type="curve" smooth="yes"/>
      <point x="295" y="149"/>
      <point x="219" y="178"/>
      <point x="149" y="233" type="curve"/>
      <point x="41" y="104" type="line"/>
      <point x="128" y="27"/>
      <point x="245" y="-12"/>
    </contour>
  </outline>
</glyph>
<glyph name="dong.tf" format="2">
  <advance width="700"/>
  <outline>
    <contour>
      <point x="619" y="-61" type="line"/>
      <point x="24" y="-61" type="line"/>
      <point x="24" y="-159" type="line"/>
      <point x="619" y="-159" type="line"/>
    </contour>
    <contour>
      <point x="620" y="699" type="line"/>
      <point x="427" y="699" type="line"/>
      <point x="427" y="655" type="line"/>
      <point x="287" y="655" type="line"/>
      <point x="287" y="565" type="line"/>
      <point x="427" y="565" type="line"/>
      <point x="427" y="456" type="line"/>
      <point x="384" y="505"/>
      <point x="327" y="529"/>
      <point x="262" y="529" type="curve" smooth="yes"/>
      <point x="107" y="529"/>
      <point x="25" y="403"/>
      <point x="25" y="259" type="curve" smooth="yes"/>
      <point x="25" y="116"/>
      <point x="108" y="-12"/>
      <point x="262" y="-12" type="curve" smooth="yes"/>
      <point x="327" y="-12"/>
      <point x="384" y="12"/>
      <point x="427" y="61" type="curve"/>
      <point x="427" y="0" type="line"/>
      <point x="620" y="0" type="line"/>
      <point x="620" y="565" type="line"/>
      <point x="677" y="565" type="line"/>
      <point x="677" y="655" type="line"/>
      <point x="620" y="655" type="line"/>
    </contour>
    <contour>
      <point x="323" y="148" type="curve" smooth="yes"/>
      <point x="257" y="148"/>
      <point x="209" y="192"/>
      <point x="209" y="259" type="curve" smooth="yes"/>
      <point x="209" y="325"/>
      <point x="258" y="369"/>
      <point x="323" y="369" type="curve" smooth="yes"/>
      <point x="387" y="369"/>
      <point x="427" y="321"/>
      <point x="427" y="259" type="curve" smooth="yes"/>
      <point x="427" y="196"/>
      <point x="388" y="148"/>
    </contour>
  </outline>
</glyph>
<glyph name="eight.tf" format="2">
  <advance width="700"/>
  <outline>
    <contour>
      <point x="349" y="-12" type="curve" smooth="yes"/>
      <point x="507" y="-12"/>
      <point x="642" y="56"/>
      <point x="642" y="187" type="curve" smooth="yes"/>
      <point x="642" y="261"/>
      <point x="597" y="320"/>
      <point x="518" y="355" type="curve"/>
      <point x="585" y="387"/>
      <point x="624" y="437"/>
      <point x="624" y="510" type="curve" smooth="yes"/>
      <point x="624" y="631"/>
      <point x="496" y="699"/>
      <point x="349" y="699" type="curve" smooth="yes"/>
      <point x="205" y="699"/>
      <point x="75" y="634"/>
      <point x="75" y="509" type="curve" smooth="yes"/>
      <point x="75" y="432"/>
      <point x="119" y="384"/>
      <point x="180" y="355" type="curve"/>
      <point x="105" y="323"/>
      <point x="57" y="265"/>
      <point x="57" y="187" type="curve" smooth="yes"/>
      <point x="57" y="57"/>
      <point x="190" y="-12"/>
    </contour>
    <contour>
      <point x="349" y="148" type="curve" smooth="yes"/>
      <point x="290" y="148"/>
      <point x="253" y="173"/>
      <point x="253" y="210" type="curve" smooth="yes"/>
      <point x="253" y="245"/>
      <point x="298" y="269"/>
      <point x="349" y="272" type="curve"/>
      <point x="400" y="269"/>
      <point x="446" y="245"/>
      <point x="446" y="210" type="curve" smooth="yes"/>
      <point x="446" y="173"/>
      <point x="407" y="148"/>
    </contour>
    <contour>
      <point x="349" y="420" type="curve"/>
      <point x="303" y="423"/>
      <point x="266" y="448"/>
      <point x="266" y="482" type="curve" smooth="yes"/>
      <point x="266" y="514"/>
      <point x="297" y="540"/>
      <point x="349" y="540" type="curve" smooth="yes"/>
      <point x="401" y="540"/>
      <point x="433" y="514"/>
      <point x="433" y="482" type="curve" smooth="yes"/>
      <point x="433" y="449"/>
      <point x="395" y="423"/>
    </contour>
  </outline>
</glyph>
<glyph name="equal.tf" format="2">
  <advance width="700"/>
  <outline>
    <contour>
      <point x="599" y="382" type="line"/>
      <point x="599" y="531" type="line"/>
      <point x="100" y="531" type="line"/>
      <point x="100" y="382" type="line"/>
    </contour>
    <contour>
      <point x="599" y="148" type="line"/>
      <point x="599" y="297" type="line"/>
      <point x="100" y="297" type="line"/>
      <point x="100" y="148" type="line"/>
    </contour>
  </outline>
</glyph>
<glyph name="five.tf" format="2">
  <advance width="700"/>
  <outline>
    <contour>
      <point x="341" y="-13" type="curve" smooth="yes"/>
      <point x="521" y="-13"/>
      <point x="634" y="82"/>
      <point x="634" y="234" type="curve" smooth="yes"/>
      <point x="634" y="376"/>
      <point x="527" y="454"/>
      <point x="407" y="454" type="curve" smooth="yes"/>
      <point x="355" y="454"/>
      <point x="313" y="439"/>
      <point x="281" y="416" type="curve"/>
      <point x="284" y="514" type="line"/>
      <point x="596" y="514" type="line"/>
      <point x="596" y="687" type="line"/>
      <point x="107" y="687" type="line"/>
      <point x="97" y="304" type="line"/>
      <point x="224" y="256" type="line"/>
      <point x="257" y="282"/>
      <point x="297" y="296"/>
      <point x="344" y="296" type="curve" smooth="yes"/>
      <point x="405" y="296"/>
      <point x="441" y="269"/>
      <point x="441" y="227" type="curve" smooth="yes"/>
      <point x="441" y="188"/>
      <point x="407" y="154"/>
      <point x="341" y="154" type="curve" smooth="yes"/>
      <point x="282" y="154"/>
      <point x="221" y="183"/>
      <point x="170" y="226" type="curve"/>
      <point x="60" y="90" type="line"/>
      <point x="129" y="26"/>
      <point x="220" y="-13"/>
    </contour>
  </outline>
</glyph>
<glyph name="four.tf" format="2">
  <advance width="700"/>
  <outline>
    <contour>
      <point x="578" y="0" type="line"/>
      <point x="578" y="122" type="line"/>
      <point x="661" y="122" type="line"/>
      <point x="661" y="282" type="line"/>
      <point x="578" y="282" type="line"/>
      <point x="578" y="687" type="line"/>
      <point x="340" y="687" type="line"/>
      <point x="37" y="268" type="line"/>
      <point x="53" y="122" type="line"/>
      <point x="384" y="122" type="line"/>
      <point x="384" y="0" type="line"/>
    </contour>
    <contour>
      <point x="384" y="488" type="line"/>
      <point x="384" y="282" type="line"/>
      <point x="236" y="282" type="line"/>
    </contour>
  </outline>
</glyph>
<glyph name="hyphen.tf" format="2">
  <advance width="420"/>
  <outline>
    <contour>
      <point x="352" y="199" type="line"/>
      <point x="352" y="357" type="line"/>
      <point x="68" y="357" type="line"/>
      <point x="68" y="199" type="line"/>
    </contour>
  </outline>
</glyph>
<glyph name="lowercase_loop_reverse" format="2">
  <advance width="530"/>
  <anchor x="432" y="259" name="_loop_left"/>
  <outline>
    <contour>
      <point x="267" y="-12" type="curve" smooth="yes"/>
      <point x="403" y="-12"/>
      <point x="500" y="100"/>
      <point x="500" y="259" type="curve" smooth="yes"/>
      <point x="500" y="417"/>
      <point x="403" y="529"/>
      <point x="267" y="529" type="curve" smooth="yes"/>
      <point x="128" y="529"/>
      <point x="30" y="417"/>
      <point x="30" y="259" type="curve" smooth="yes"/>
      <point x="30" y="100"/>
      <point x="128" y="-12"/>
    </contour>
    <contour>
      <point x="328" y="148" type="curve" smooth="yes"/>
      <point x="261" y="148"/>
      <point x="214" y="194"/>
      <point x="214" y="259" type="curve" smooth="yes"/>
      <point x="214" y="323"/>
      <point x="261" y="369"/>
      <point x="328" y="369" type="curve" smooth="yes"/>
      <point x="389" y="369"/>
      <point x="432" y="323"/>
      <point x="432" y="259" type="curve" smooth="yes"/>
      <point x="432" y="194"/>
      <point x="389" y="148"/>
    </contour>
  </outline>
</glyph>
<glyph name="minus.tf" format="2">
  <advance width="700"/>
  <outline>
    <contour>
      <point x="599" y="259" type="line"/>
      <point x="599" y="408" type="line"/>
      <point x="100" y="408" type="line"/>
      <point x="100" y="259" type="line"/>
    </contour>
  </outline>
</glyph>
<glyph name="nine.tf" format="2">
  <advance width="700"/>
  <outline>
    <contour>
      <point x="329" y="699" type="curve" smooth="yes"/>
      <point x="174" y="699"/>
      <point x="52" y="604"/>
      <point x="52" y="454" type="curve" smooth="yes"/>
      <point x="52" y="317"/>
      <point x="157" y="233"/>
      <point x="285" y="233" type="curve" smooth="yes"/>
      <point x="362" y="233"/>
      <point x="441" y="267"/>
      <point x="477" y="316" type="curve"/>
      <point x="456" y="506" type="line"/>
      <point x="453" y="437"/>
      <point x="408" y="388"/>
      <point x="347" y="388" type="curve" smooth="yes"/>
      <point x="297" y="388"/>
      <point x="252" y="415"/>
      <point x="252" y="462" type="curve" smooth="yes"/>
      <point x="252" y="504"/>
      <point x="288" y="535"/>
      <point x="342" y="535" type="curve" smooth="yes"/>
      <point x="426" y="535"/>
      <point x="442" y="485"/>
      <point x="442" y="356" type="curve" smooth="yes"/>
      <point x="442" y="229"/>
      <point x="394" y="157"/>
      <point x="299" y="157" type="curve" smooth="yes"/>
      <point x="247" y="157"/>
      <point x="209" y="173"/>
      <point x="168" y="203" type="curve"/>
      <point x="80" y="57" type="line"/>
      <point x="140" y="14"/>
      <point x="214" y="-12"/>
      <point x="301" y="-12" type="curve" smooth="yes"/>
      <point x="514" y="-12"/>
      <point x="642" y="135"/>
      <point x="642" y="356" type="curve" smooth="yes"/>
      <point x="642" y="560"/>
      <point x="539" y="699"/>
    </contour>
  </outline>
</glyph>
<glyph name="one.tf" format="2">
  <advance width="700"/>
  <outline>
    <contour>
      <point x="513" y="0" type="line"/>
      <point x="513" y="687" type="line"/>
      <point x="358" y="687" type="line"/>
      <point x="128" y="533" type="line"/>
      <point x="204" y="399" type="line"/>
      <point x="319" y="469" type="line"/>
      <point x="319" y="0" type="line"/>
    </contour>
  </outline>
</glyph>
<glyph name="period.tf" format="2">
  <advance width="315"/>
  <outline>
    <contour>
      <point x="159" y="-12" type="curve" smooth="yes"/>
      <point x="221" y="-12"/>
      <point x="272" y="41"/>
      <point x="272" y="106" type="curve" smooth="yes"/>
      <point x="272" y="166"/>
      <point x="221" y="219"/>
      <point x="159" y="219" type="curve" smooth="yes"/>
      <point x="92" y="219"/>
      <point x="41" y="166"/>
      <point x="41" y="106" type="curve" smooth="yes"/>
      <point x="41" y="41"/>
      <point x="92" y="-12"/>
    </contour>
  </outline>
</glyph>
<glyph name="plus.tf" format="2">
  <advance width="700"/>
  <outline>
    <contour>
      <point x="599" y="259" type="line"/>
      <point x="599" y="408" type="line"/>
      <point x="100" y="408" type="line"/>
      <point x="100" y="259" type="line"/>
    </contour>
    <contour>
      <point x="430" y="84" type="line"/>
      <point x="430" y="583" type="line"/>
      <point x="270" y="583" type="line"/>
      <point x="270" y="84" type="line"/>
    </contour>
  </outline>
</glyph>
<glyph name="ringacute.case" format="2">
  <advance width="283"/>
  <anchor x="141" y="534" name="_top"/>
  <anchor x="141" y="796" name="top"/>
  <outline>
    <contour>
      <point x="141" y="576" type="curve" smooth="yes"/>
      <point x="208" y="576"/>
      <point x="262" y="613"/>
      <point x="262" y="660" type="curve" smooth="yes"/>
      <point x="262" y="707"/>
      <point x="208" y="745"/>
      <point x="141" y="745" type="curve" smooth="yes"/>
      <point x="75" y="745"/>
      <point x="20" y="707"/>
      <point x="20" y="660" type="curve" smooth="yes"/>
      <point x="20" y="613"/>
      <point x="75" y="576"/>
    </contour>
    <contour>
      <point x="141" y="626" type="curve" smooth="yes"/>
      <point x="114" y="626"/>
      <point x="92" y="641"/>
      <point x="92" y="660" type="curve" smooth="yes"/>
      <point x="92" y="679"/>
      <point x="114" y="695"/>
      <point x="141" y="695" type="curve" smooth="yes"/>
      <point x="168" y="695"/>
      <point x="190" y="679"/>
      <point x="190" y="660" type="curve" smooth="yes"/>
      <point x="190" y="641"/>
      <point x="168" y="626"/>
    </contour>
    <contour>
      <point x="202" y="705" type="line"/>
      <point x="354" y="800" type="line"/>
      <point x="188" y="820" type="line"/>
      <point x="76" y="705" type="line"/>
    </contour>
  </outline>
</glyph>
<glyph name="seven.tf" format="2">
  <advance width="700"/>
  <outline>
    <contour>
      <point x="355" y="0" type="line"/>
      <point x="620" y="541" type="line"/>
      <point x="620" y="687" type="line"/>
      <point x="78" y="687" type="line"/>
      <point x="78" y="514" type="line"/>
      <point x="397" y="514" type="line"/>
      <point x="137" y="0" type="line"/>
    </contour>
  </outline>
</glyph>
<glyph name="six.tf" format="2">
  <advance width="700"/>
  <outline>
    <contour>
      <point x="371" y="-12" type="curve" smooth="yes"/>
      <point x="526" y="-12"/>
      <point x="648" y="83"/>
      <point x="648" y="233" type="curve" smooth="yes"/>
      <point x="648" y="370"/>
      <point x="543" y="454"/>
      <point x="415" y="454" type="curve" smooth="yes"/>
      <point x="338" y="454"/>
      <point x="259" y="420"/>
      <point x="223" y="371" type="curve"/>
      <point x="244" y="181" type="line"/>
      <point x="247" y="250"/>
      <point x="292" y="299"/>
      <point x="353" y="299" type="curve" smooth="yes"/>
      <point x="403" y="299"/>
      <point x="448" y="272"/>
      <point x="448" y="225" type="curve" smooth="yes"/>
      <point x="448" y="183"/>
      <point x="412" y="152"/>
      <point x="358" y="152" type="curve" smooth="yes"/>
      <point x="274" y="152"/>
      <point x="258" y="202"/>
      <point x="258" y="331" type="curve" smooth="yes"/>
      <point x="258" y="458"/>
      <point x="306" y="530"/>
      <point x="401" y="530" type="curve" smooth="yes"/>
      <point x="453" y="530"/>
      <point x="491" y="514"/>
      <point x="532" y="484" type="curve"/>
      <point x="620" y="630" type="line"/>
      <point x="560" y="673"/>
      <point x="486" y="699"/>
      <point x="399" y="699" type="curve" smooth="yes"/>
      <point x="186" y="699"/>
      <point x="58" y="552"/>
      <point x="58" y="331" type="curve" smooth="yes"/>
      <point x="58" y="127"/>
      <point x="161" y="-12"/>
    </contour>
  </outline>
</glyph>
<glyph name="sterling.tf" format="2">
  <advance width="700"/>
  <outline>
    <contour>
      <point x="656" y="0" type="line"/>
      <point x="656" y="143" type="line"/>
      <point x="279" y="143" type="line"/>
      <point x="336" y="87" type="line"/>
      <point x="336" y="443" type="line" smooth="yes"/>
      <point x="336" y="490"/>
      <point x="370" y="523"/>
      <point x="417" y="523" type="curve" smooth="yes"/>
      <point x="452" y="523"/>
      <point x="490" y="498"/>
      <point x="509" y="463" type="curve"/>
      <point x="634" y="585" type="line"/>
      <point x="585" y="652"/>
      <point x="484" y="699"/>
      <point x="391" y="699" type="curve" smooth="yes"/>
      <point x="245" y="699"/>
      <point x="142" y="601"/>
      <point x="142" y="463" type="curve" smooth="yes"/>
      <point x="142" y="143" type="line"/>
      <point x="42" y="76" type="line"/>
      <point x="42" y="0" type="line"/>
    </contour>
    <contour>
      <point x="473" y="250" type="line"/>
      <point x="473" y="337" type="line"/>
      <point x="68" y="337" type="line"/>
      <point x="68" y="250" type="line"/>
    </contour>
  </outline>
</glyph>
<glyph name="three.tf" format="2">
  <advance width="700"/>
  <outline>
    <contour>
      <point x="346" y="-13" type="curve" smooth="yes"/>
      <point x="518" y="-13"/>
      <point x="628" y="74"/>
      <point x="628" y="196" type="curve" smooth="yes"/>
      <point x="628" y="281"/>
      <point x="565" y="336"/>
      <point x="487" y="354" type="curve"/>
      <point x="565" y="377"/>
      <point x="613" y="436"/>
      <point x="613" y="510" type="curve" smooth="yes"/>
      <point x="613" y="618"/>
      <point x="515" y="699"/>
      <point x="345" y="699" type="curve" smooth="yes"/>
      <point x="213" y="699"/>
      <point x="127" y="646"/>
      <point x="67" y="577" type="curve"/>
      <point x="174" y="458" type="line"/>
      <point x="218" y="499"/>
      <point x="267" y="526"/>
      <point x="324" y="526" type="curve" smooth="yes"/>
      <point x="380" y="526"/>
      <point x="415" y="507"/>
      <point x="415" y="473" type="curve" smooth="yes"/>
      <point x="415" y="442"/>
      <point x="386" y="425"/>
      <point x="322" y="425" type="curve" smooth="yes"/>
      <point x="240" y="425" type="line"/>
      <point x="240" y="263" type="line"/>
      <point x="323" y="264" type="line" smooth="yes"/>
      <point x="405" y="265"/>
      <point x="428" y="247"/>
      <point x="428" y="214" type="curve" smooth="yes"/>
      <point x="428" y="183"/>
      <point x="397" y="160"/>
      <point x="335" y="160" type="curve" smooth="yes"/>
      <point x="276" y="160"/>
      <point x="212" y="182"/>
      <point x="161" y="230" type="curve"/>
      <point x="52" y="101" type="line"/>
      <point x="116" y="33"/>
      <point x="215" y="-13"/>
    </contour>
  </outline>
</glyph>
<glyph name="two.tf" format="2">
  <advance width="700"/>
  <outline>
    <contour>
      <point x="622" y="0" type="line"/>
      <point x="622" y="173" type="line"/>
      <point x="369" y="173" type="line"/>
      <point x="458" y="230" type="line" smooth="yes"/>
      <point x="580" y="308"/>
      <point x="616" y="378"/>
      <point x="616" y="468" type="curve" smooth="yes"/>
      <point x="616" y="601"/>
      <point x="506" y="699"/>
      <point x="343" y="699" type="curve" smooth="yes"/>
      <point x="229" y="699"/>
      <point x="136" y="653"/>
      <point x="60" y="563" type="curve"/>
      <point x="180" y="442" type="line"/>
      <point x="233" y="495"/>
      <point x="279" y="523"/>
      <point x="338" y="523" type="curve" smooth="yes"/>
      <point x="383" y="523"/>
      <point x="416" y="498"/>
      <point x="416" y="460" type="curve" smooth="yes"/>
      <point x="416" y="424"/>
      <point x="399" y="393"/>
      <point x="327" y="341" type="curve" smooth="yes"/>
      <point x="72" y="157" type="line"/>
      <point x="72" y="0" type="line"/>
    </contour>
  </outline>
</glyph>
<glyph name="yen.tf" format="2">
  <advance width="700"/>
  <anchor x="350" y="687" name="top"/>
  <outline>
    <contour>
      <point x="600" y="90" type="line"/>
      <point x="600" y="177" type="line"/>
      <point x="104" y="177" type="line"/>
      <point x="104" y="90" type="line"/>
    </contour>
    <contour>
      <point x="600" y="230" type="line"/>
      <point x="600" y="317" type="line"/>
      <point x="104" y="317" type="line"/>
      <point x="104" y="230" type="line"/>
    </contour>
    <contour>
      <point x="447" y="0" type="line"/>
      <point x="447" y="226" type="line"/>
      <point x="710" y="687" type="line"/>
      <point x="497" y="687" type="line"/>
      <point x="350" y="408" type="line"/>
      <point x="211" y="687" type="line"/>
      <point x="-11" y="687" type="line"/>
      <point x="253" y="226" type="line"/>
      <point x="253" y="0" type="line"/>
    </contour>
  </outline>
</glyph>
<glyph name="zero.tf" format="2">
  <advance width="700"/>
  <outline>
    <contour>
      <point x="350" y="-12" type="curve" smooth="yes"/>
      <point x="540" y="-12"/>
      <point x="674" y="135"/>
      <point x="674" y="344" type="curve" smooth="yes"/>
      <point x="674" y="552"/>
      <point x="540" y="699"/>
      <point x="350" y="699" type="curve" smooth="yes"/>
      <point x="160" y="699"/>
      <point x="26" y="552"/>
      <point x="26" y="344" type="curve" smooth="yes"/>
      <point x="26" y="135"/>
      <point x="160" y="-12"/>
    </contour>
    <contour>
      <point x="350" y="164" type="curve" smooth="yes"/>
      <point x="277" y="164"/>
      <point x="226" y="239"/>
      <point x="226" y="344" type="curve" smooth="yes"/>
      <point x="226" y="449"/>
      <point x="277" y="523"/>
      <point x="350" y="523" type="curve" smooth="yes"/>
      <point x="423" y="523"/>
      <point x="474" y="449"/>
      <point x="474" y="344" type="curve" smooth="yes"/>
      <point x="474" y="239"/>
      <point x="423" y="164"/>
    </contour>
  </outline>
</glyph>
